<svg width="412" height="412" viewBox="0 0 412 412" fill="none" xmlns="http://www.w3.org/2000/svg">
<rect x="0.5" y="411.5" width="411" height="411" rx="205.5" transform="rotate(-90 0.5 411.5)" fill="#F4F4F1"/>
<rect x="0.5" y="411.5" width="411" height="411" rx="205.5" transform="rotate(-90 0.5 411.5)" stroke="#D5D5CF" stroke-linecap="round"/>
<g clip-path="url(#clip0_2041_804)">
<rect x="173.693" y="173.692" width="64.6148" height="64.6148" rx="32.3074" stroke="#D5D5CF"/>
<circle opacity="0.5" cx="180.201" cy="201.338" r="2.28889" transform="rotate(4 180.201 201.338)" fill="#262624"/>
<circle opacity="0.5" cx="180.201" cy="210.802" r="2.28889" transform="rotate(4 180.201 210.802)" fill="#262624"/>
<circle opacity="0.5" cx="188.902" cy="191.875" r="2.28889" transform="rotate(4 188.902 191.875)" fill="#262624"/>
<circle opacity="0.5" cx="188.902" cy="201.338" r="2.28889" transform="rotate(4 188.902 201.338)" fill="#262624"/>
<circle opacity="0.5" cx="188.902" cy="210.802" r="2.28889" transform="rotate(4 188.902 210.802)" fill="#262624"/>
<circle opacity="0.5" cx="188.902" cy="220.266" r="2.28889" transform="rotate(4 188.902 220.266)" fill="#262624"/>
<circle opacity="0.5" cx="197.602" cy="187.143" r="2.28889" transform="rotate(4 197.602 187.143)" fill="#262624"/>
<circle opacity="0.5" cx="197.602" cy="196.607" r="2.28889" transform="rotate(4 197.602 196.607)" fill="#262624"/>
<circle opacity="0.5" cx="197.602" cy="206.07" r="2.28889" transform="rotate(4 197.602 206.07)" fill="#262624"/>
<circle opacity="0.5" cx="197.602" cy="215.534" r="2.28889" transform="rotate(4 197.602 215.534)" fill="#262624"/>
<circle opacity="0.5" cx="197.602" cy="224.998" r="2.28889" transform="rotate(4 197.602 224.998)" fill="#262624"/>
<circle opacity="0.5" cx="206.303" cy="182.411" r="2.28889" transform="rotate(4 206.303 182.411)" fill="#262624"/>
<circle opacity="0.5" cx="206.303" cy="191.875" r="2.28889" transform="rotate(4 206.303 191.875)" fill="#262624"/>
<circle opacity="0.5" cx="206.303" cy="201.338" r="2.28889" transform="rotate(4 206.303 201.338)" fill="#262624"/>
<circle opacity="0.5" cx="206.303" cy="210.802" r="2.28889" transform="rotate(4 206.303 210.802)" fill="#262624"/>
<circle opacity="0.5" cx="206.303" cy="220.266" r="2.28889" transform="rotate(4 206.303 220.266)" fill="#262624"/>
<circle opacity="0.5" cx="206.303" cy="229.73" r="2.28889" transform="rotate(4 206.303 229.73)" fill="#262624"/>
<circle opacity="0.5" cx="215.004" cy="187.143" r="2.28889" transform="rotate(4 215.004 187.143)" fill="#262624"/>
<circle opacity="0.5" cx="215.004" cy="196.607" r="2.28889" transform="rotate(4 215.004 196.607)" fill="#262624"/>
<circle opacity="0.5" cx="215.004" cy="206.07" r="2.28889" transform="rotate(4 215.004 206.07)" fill="#262624"/>
<circle opacity="0.5" cx="215.004" cy="215.534" r="2.28889" transform="rotate(4 215.004 215.534)" fill="#262624"/>
<circle opacity="0.5" cx="215.004" cy="224.998" r="2.28889" transform="rotate(4 215.004 224.998)" fill="#262624"/>
<circle opacity="0.5" cx="223.705" cy="191.875" r="2.28889" transform="rotate(4 223.705 191.875)" fill="#262624"/>
<circle opacity="0.5" cx="223.705" cy="201.338" r="2.28889" transform="rotate(4 223.705 201.338)" fill="#262624"/>
<circle opacity="0.5" cx="223.705" cy="210.802" r="2.28889" transform="rotate(4 223.705 210.802)" fill="#262624"/>
<circle opacity="0.5" cx="223.705" cy="220.266" r="2.28889" transform="rotate(4 223.705 220.266)" fill="#262624"/>
<circle opacity="0.5" cx="232.406" cy="201.338" r="2.28889" transform="rotate(4 232.406 201.338)" fill="#262624"/>
<circle opacity="0.5" cx="232.406" cy="210.802" r="2.28889" transform="rotate(4 232.406 210.802)" fill="#262624"/>
<rect x="172.18" y="129.704" width="47.8296" height="47.8296" rx="23.9148" transform="rotate(-45 172.18 129.704)" stroke="#D5D5CF"/>
<circle opacity="0.5" cx="192.072" cy="125.056" r="2.28889" transform="rotate(4 192.072 125.056)" fill="#262624"/>
<circle opacity="0.5" cx="192.072" cy="134.519" r="2.28889" transform="rotate(4 192.072 134.519)" fill="#262624"/>
<circle opacity="0.5" cx="201.536" cy="115.592" r="2.28889" transform="rotate(4 201.536 115.592)" fill="#262624"/>
<circle opacity="0.5" cx="201.536" cy="125.056" r="2.28889" transform="rotate(4 201.536 125.056)" fill="#262624"/>
<circle opacity="0.5" cx="201.536" cy="134.519" r="2.28889" transform="rotate(4 201.536 134.519)" fill="#262624"/>
<circle opacity="0.5" cx="201.536" cy="143.983" r="2.28889" transform="rotate(4 201.536 143.983)" fill="#262624"/>
<circle opacity="0.5" cx="211" cy="115.592" r="2.28889" transform="rotate(4 211 115.592)" fill="#262624"/>
<circle opacity="0.5" cx="211" cy="125.056" r="2.28889" transform="rotate(4 211 125.056)" fill="#262624"/>
<circle opacity="0.5" cx="211" cy="134.519" r="2.28889" transform="rotate(4 211 134.519)" fill="#262624"/>
<circle opacity="0.5" cx="211" cy="143.983" r="2.28889" transform="rotate(4 211 143.983)" fill="#262624"/>
<circle opacity="0.5" cx="220.463" cy="125.056" r="2.28889" transform="rotate(4 220.463 125.056)" fill="#262624"/>
<circle opacity="0.5" cx="220.463" cy="134.519" r="2.28889" transform="rotate(4 220.463 134.519)" fill="#262624"/>
<path d="M193.987 136.376L199.328 141.716" stroke="#73736E" stroke-width="0.305185" stroke-linecap="round"/>
<path d="M193.987 127.22L199.328 132.561" stroke="#73736E" stroke-width="0.305185" stroke-linecap="round"/>
<path d="M203.905 136.376L209.246 141.716" stroke="#73736E" stroke-width="0.305185" stroke-linecap="round"/>
<path d="M203.905 127.22L209.246 132.561" stroke="#73736E" stroke-width="0.305185" stroke-linecap="round"/>
<path d="M213.061 127.22L218.401 132.561" stroke="#73736E" stroke-width="0.305185" stroke-linecap="round"/>
<path d="M213.061 118.065L218.401 123.405" stroke="#73736E" stroke-width="0.305185" stroke-linecap="round"/>
<path d="M213.824 124.931H217.639" stroke="#73736E" stroke-width="0.305185" stroke-linecap="round"/>
<path d="M213.824 134.85H217.639" stroke="#73736E" stroke-width="0.305185" stroke-linecap="round"/>
<path d="M201.615 121.88V118.065" stroke="#73736E" stroke-width="0.305185" stroke-linecap="round"/>
<path d="M211.535 121.88V118.065" stroke="#73736E" stroke-width="0.305185" stroke-linecap="round"/>
<path d="M204.668 124.931H208.483" stroke="#73736E" stroke-width="0.305185" stroke-linecap="round"/>
<path d="M204.668 144.006H208.483" stroke="#73736E" stroke-width="0.305185" stroke-linecap="round"/>
<path d="M204.668 115.776H208.483" stroke="#73736E" stroke-width="0.305185" stroke-linecap="round"/>
<path d="M204.668 134.85H208.483" stroke="#73736E" stroke-width="0.305185" stroke-linecap="round"/>
<path d="M201.48 131.797V127.982" stroke="#73736E" stroke-width="0.305185" stroke-linecap="round"/>
<path d="M211.398 131.797V127.982" stroke="#73736E" stroke-width="0.305185" stroke-linecap="round"/>
<path d="M220.689 131.797V127.982" stroke="#73736E" stroke-width="0.305185" stroke-linecap="round"/>
<path d="M191.697 131.797V127.982" stroke="#73736E" stroke-width="0.305185" stroke-linecap="round"/>
<path d="M194.749 124.931H198.564" stroke="#73736E" stroke-width="0.305185" stroke-linecap="round"/>
<path d="M194.749 134.85H198.564" stroke="#73736E" stroke-width="0.305185" stroke-linecap="round"/>
<path d="M201.332 140.951V137.137" stroke="#73736E" stroke-width="0.305185" stroke-linecap="round"/>
<path d="M211.251 140.951V137.137" stroke="#73736E" stroke-width="0.305185" stroke-linecap="round"/>
<path d="M218.401 127.22L213.061 132.561" stroke="#73736E" stroke-width="0.305185" stroke-linecap="round"/>
<path d="M218.401 136.376L213.061 141.716" stroke="#73736E" stroke-width="0.305185" stroke-linecap="round"/>
<path d="M209.245 127.22L203.904 132.561" stroke="#73736E" stroke-width="0.305185" stroke-linecap="round"/>
<path d="M199.328 127.22L193.987 132.561" stroke="#73736E" stroke-width="0.305185" stroke-linecap="round"/>
<path d="M209.245 117.302L203.904 122.643" stroke="#73736E" stroke-width="0.305185" stroke-linecap="round"/>
<path d="M199.328 117.302L193.987 122.643" stroke="#73736E" stroke-width="0.305185" stroke-linecap="round"/>
<path d="M209.245 136.376L203.904 141.716" stroke="#73736E" stroke-width="0.305185" stroke-linecap="round"/>
<path d="M203.905 117.302L209.246 122.643" stroke="#73736E" stroke-width="0.305185" stroke-linecap="round"/>
<path d="M206.765 154.119L205.223 156.789H208.306L206.765 154.119ZM206.765 173.193L208.306 170.522H205.223L206.765 173.193ZM206.765 156.522H206.498V170.789H206.765H207.032V156.522H206.765Z" fill="#73736E"/>
<path d="M206.765 238.808L205.223 241.478H208.306L206.765 238.808ZM206.765 257.882L208.306 255.211H205.223L206.765 257.882ZM206.765 241.211H206.498V255.478H206.765H207.032V241.211H206.765Z" fill="#73736E"/>
<path d="M242.622 169.378L239.644 170.176L241.824 172.356L242.622 169.378ZM229.652 182.348L232.63 181.55L230.45 179.37L229.652 182.348ZM240.923 171.077L240.734 170.889L231.162 180.46L231.351 180.649L231.54 180.838L241.111 171.266L240.923 171.077Z" fill="#73736E"/>
<path d="M169.378 169.378L170.176 172.356L172.356 170.176L169.378 169.378ZM182.348 182.348L181.55 179.37L179.37 181.55L182.348 182.348ZM171.077 171.077L170.889 171.266L180.46 180.838L180.649 180.649L180.838 180.46L171.266 170.889L171.077 171.077Z" fill="#73736E"/>
<path d="M230.415 228.889L231.213 231.867L233.393 229.687L230.415 228.889ZM243.385 241.859L242.587 238.881L240.407 241.061L243.385 241.859ZM232.114 230.588L231.926 230.777L241.497 240.348L241.686 240.16L241.875 239.971L232.303 230.399L232.114 230.588Z" fill="#73736E"/>
<path d="M183.11 230.415L180.132 231.213L182.312 233.393L183.11 230.415ZM170.14 243.385L173.118 242.587L170.938 240.407L170.14 243.385ZM181.411 232.114L181.222 231.925L171.651 241.497L171.839 241.686L172.028 241.875L181.6 232.303L181.411 232.114Z" fill="#73736E"/>
<rect x="259.986" y="118.267" width="47.8296" height="47.8296" rx="23.9148" transform="rotate(45 259.986 118.267)" stroke="#D5D5CF"/>
<circle opacity="0.5" cx="264.635" cy="138.16" r="2.28889" transform="rotate(94 264.635 138.16)" fill="#262624"/>
<circle opacity="0.5" cx="255.171" cy="138.16" r="2.28889" transform="rotate(94 255.171 138.16)" fill="#262624"/>
<circle opacity="0.5" cx="274.099" cy="147.624" r="2.28889" transform="rotate(94 274.099 147.624)" fill="#262624"/>
<circle opacity="0.5" cx="264.635" cy="147.624" r="2.28889" transform="rotate(94 264.635 147.624)" fill="#262624"/>
<circle opacity="0.5" cx="255.171" cy="147.624" r="2.28889" transform="rotate(94 255.171 147.624)" fill="#262624"/>
<circle opacity="0.5" cx="245.707" cy="147.624" r="2.28889" transform="rotate(94 245.707 147.624)" fill="#262624"/>
<circle opacity="0.5" cx="274.099" cy="157.088" r="2.28889" transform="rotate(94 274.099 157.088)" fill="#262624"/>
<circle opacity="0.5" cx="264.635" cy="157.088" r="2.28889" transform="rotate(94 264.635 157.088)" fill="#262624"/>
<circle opacity="0.5" cx="255.171" cy="157.088" r="2.28889" transform="rotate(94 255.171 157.088)" fill="#262624"/>
<circle opacity="0.5" cx="245.707" cy="157.088" r="2.28889" transform="rotate(94 245.707 157.088)" fill="#262624"/>
<circle opacity="0.5" cx="264.635" cy="166.551" r="2.28889" transform="rotate(94 264.635 166.551)" fill="#262624"/>
<circle opacity="0.5" cx="255.171" cy="166.551" r="2.28889" transform="rotate(94 255.171 166.551)" fill="#262624"/>
<path d="M253.313 140.075L247.973 145.416" stroke="#73736E" stroke-width="0.305185" stroke-linecap="round"/>
<path d="M262.47 140.075L257.129 145.416" stroke="#73736E" stroke-width="0.305185" stroke-linecap="round"/>
<path d="M253.313 149.993L247.973 155.334" stroke="#73736E" stroke-width="0.305185" stroke-linecap="round"/>
<path d="M262.47 149.993L257.129 155.334" stroke="#73736E" stroke-width="0.305185" stroke-linecap="round"/>
<path d="M262.47 159.149L257.129 164.49" stroke="#73736E" stroke-width="0.305185" stroke-linecap="round"/>
<path d="M271.625 159.149L266.284 164.49" stroke="#73736E" stroke-width="0.305185" stroke-linecap="round"/>
<path d="M264.757 159.912V163.726" stroke="#73736E" stroke-width="0.305185" stroke-linecap="round"/>
<path d="M254.84 159.912V163.726" stroke="#73736E" stroke-width="0.305185" stroke-linecap="round"/>
<path d="M267.81 147.705H271.624" stroke="#73736E" stroke-width="0.305185" stroke-linecap="round"/>
<path d="M267.81 157.623H271.624" stroke="#73736E" stroke-width="0.305185" stroke-linecap="round"/>
<path d="M264.757 150.756V154.571" stroke="#73736E" stroke-width="0.305185" stroke-linecap="round"/>
<path d="M245.686 150.756V154.571" stroke="#73736E" stroke-width="0.305185" stroke-linecap="round"/>
<path d="M273.913 150.756V154.571" stroke="#73736E" stroke-width="0.305185" stroke-linecap="round"/>
<path d="M254.84 150.756V154.571" stroke="#73736E" stroke-width="0.305185" stroke-linecap="round"/>
<path d="M257.893 147.567H261.707" stroke="#73736E" stroke-width="0.305185" stroke-linecap="round"/>
<path d="M257.893 157.486H261.707" stroke="#73736E" stroke-width="0.305185" stroke-linecap="round"/>
<path d="M257.893 166.778H261.707" stroke="#73736E" stroke-width="0.305185" stroke-linecap="round"/>
<path d="M257.893 137.786H261.707" stroke="#73736E" stroke-width="0.305185" stroke-linecap="round"/>
<path d="M264.757 140.838V144.653" stroke="#73736E" stroke-width="0.305185" stroke-linecap="round"/>
<path d="M254.84 140.838V144.653" stroke="#73736E" stroke-width="0.305185" stroke-linecap="round"/>
<path d="M248.738 147.42H252.553" stroke="#73736E" stroke-width="0.305185" stroke-linecap="round"/>
<path d="M248.738 157.338H252.553" stroke="#73736E" stroke-width="0.305185" stroke-linecap="round"/>
<path d="M262.47 164.49L257.129 159.149" stroke="#73736E" stroke-width="0.305185" stroke-linecap="round"/>
<path d="M253.313 164.49L247.973 159.149" stroke="#73736E" stroke-width="0.305185" stroke-linecap="round"/>
<path d="M262.47 155.334L257.129 149.994" stroke="#73736E" stroke-width="0.305185" stroke-linecap="round"/>
<path d="M262.47 145.416L257.129 140.075" stroke="#73736E" stroke-width="0.305185" stroke-linecap="round"/>
<path d="M272.388 155.334L267.047 149.994" stroke="#73736E" stroke-width="0.305185" stroke-linecap="round"/>
<path d="M272.388 145.416L267.047 140.075" stroke="#73736E" stroke-width="0.305185" stroke-linecap="round"/>
<path d="M253.313 155.334L247.973 149.994" stroke="#73736E" stroke-width="0.305185" stroke-linecap="round"/>
<path d="M272.388 149.993L267.047 155.334" stroke="#73736E" stroke-width="0.305185" stroke-linecap="round"/>
<g clip-path="url(#clip1_2041_804)">
<circle opacity="0.5" cx="192.072" cy="277.648" r="2.28889" transform="rotate(4 192.072 277.648)" fill="#262624"/>
<circle opacity="0.5" cx="192.072" cy="287.111" r="2.28889" transform="rotate(4 192.072 287.111)" fill="#262624"/>
<circle opacity="0.5" cx="201.536" cy="268.184" r="2.28889" transform="rotate(4 201.536 268.184)" fill="#262624"/>
<circle opacity="0.5" cx="201.536" cy="277.648" r="2.28889" transform="rotate(4 201.536 277.648)" fill="#262624"/>
<circle opacity="0.5" cx="201.536" cy="287.111" r="2.28889" transform="rotate(4 201.536 287.111)" fill="#262624"/>
<circle opacity="0.5" cx="201.536" cy="296.575" r="2.28889" transform="rotate(4 201.536 296.575)" fill="#262624"/>
<circle opacity="0.5" cx="211" cy="268.184" r="2.28889" transform="rotate(4 211 268.184)" fill="#262624"/>
<circle opacity="0.5" cx="211" cy="277.648" r="2.28889" transform="rotate(4 211 277.648)" fill="#262624"/>
<circle opacity="0.5" cx="211" cy="287.112" r="2.28889" transform="rotate(4 211 287.112)" fill="#262624"/>
<circle opacity="0.5" cx="211" cy="296.575" r="2.28889" transform="rotate(4 211 296.575)" fill="#262624"/>
<circle opacity="0.5" cx="220.463" cy="277.648" r="2.28889" transform="rotate(4 220.463 277.648)" fill="#262624"/>
<circle opacity="0.5" cx="220.463" cy="287.112" r="2.28889" transform="rotate(4 220.463 287.112)" fill="#262624"/>
<path d="M193.987 288.968L199.328 294.309" stroke="#73736E" stroke-width="0.305185" stroke-linecap="round"/>
<path d="M193.987 279.813L199.328 285.153" stroke="#73736E" stroke-width="0.305185" stroke-linecap="round"/>
<path d="M203.905 288.968L209.246 294.309" stroke="#73736E" stroke-width="0.305185" stroke-linecap="round"/>
<path d="M203.905 279.813L209.246 285.153" stroke="#73736E" stroke-width="0.305185" stroke-linecap="round"/>
<path d="M213.061 279.813L218.401 285.153" stroke="#73736E" stroke-width="0.305185" stroke-linecap="round"/>
<path d="M213.061 270.657L218.401 275.998" stroke="#73736E" stroke-width="0.305185" stroke-linecap="round"/>
<path d="M213.824 277.524H217.639" stroke="#73736E" stroke-width="0.305185" stroke-linecap="round"/>
<path d="M213.824 287.443H217.639" stroke="#73736E" stroke-width="0.305185" stroke-linecap="round"/>
<path d="M201.615 274.472V270.657" stroke="#73736E" stroke-width="0.305185" stroke-linecap="round"/>
<path d="M211.535 274.472V270.657" stroke="#73736E" stroke-width="0.305185" stroke-linecap="round"/>
<path d="M204.668 277.524H208.483" stroke="#73736E" stroke-width="0.305185" stroke-linecap="round"/>
<path d="M204.668 296.598H208.483" stroke="#73736E" stroke-width="0.305185" stroke-linecap="round"/>
<path d="M204.668 268.368H208.483" stroke="#73736E" stroke-width="0.305185" stroke-linecap="round"/>
<path d="M204.668 287.443H208.483" stroke="#73736E" stroke-width="0.305185" stroke-linecap="round"/>
<path d="M201.48 284.389V280.575" stroke="#73736E" stroke-width="0.305185" stroke-linecap="round"/>
<path d="M211.398 284.389V280.575" stroke="#73736E" stroke-width="0.305185" stroke-linecap="round"/>
<path d="M220.689 284.389V280.575" stroke="#73736E" stroke-width="0.305185" stroke-linecap="round"/>
<path d="M191.697 284.389V280.575" stroke="#73736E" stroke-width="0.305185" stroke-linecap="round"/>
<path d="M194.749 277.524H198.564" stroke="#73736E" stroke-width="0.305185" stroke-linecap="round"/>
<path d="M194.749 287.443H198.564" stroke="#73736E" stroke-width="0.305185" stroke-linecap="round"/>
<path d="M201.332 293.544V289.729" stroke="#73736E" stroke-width="0.305185" stroke-linecap="round"/>
<path d="M211.251 293.544V289.729" stroke="#73736E" stroke-width="0.305185" stroke-linecap="round"/>
<path d="M218.401 279.813L213.061 285.153" stroke="#73736E" stroke-width="0.305185" stroke-linecap="round"/>
<path d="M218.401 288.968L213.061 294.309" stroke="#73736E" stroke-width="0.305185" stroke-linecap="round"/>
<path d="M209.245 279.813L203.904 285.153" stroke="#73736E" stroke-width="0.305185" stroke-linecap="round"/>
<path d="M199.328 279.813L193.987 285.153" stroke="#73736E" stroke-width="0.305185" stroke-linecap="round"/>
<path d="M209.245 269.894L203.904 275.235" stroke="#73736E" stroke-width="0.305185" stroke-linecap="round"/>
<path d="M199.328 269.894L193.987 275.235" stroke="#73736E" stroke-width="0.305185" stroke-linecap="round"/>
<path d="M209.245 288.968L203.904 294.309" stroke="#73736E" stroke-width="0.305185" stroke-linecap="round"/>
<path d="M203.905 269.894L209.246 275.235" stroke="#73736E" stroke-width="0.305185" stroke-linecap="round"/>
</g>
<rect x="172.18" y="282.296" width="47.8296" height="47.8296" rx="23.9148" transform="rotate(-45 172.18 282.296)" stroke="#D5D5CF"/>
<rect x="152.014" y="226.092" width="47.8296" height="47.8296" rx="23.9148" transform="rotate(45 152.014 226.092)" stroke="#D5D5CF"/>
<circle opacity="0.5" cx="156.662" cy="245.985" r="2.28889" transform="rotate(94 156.662 245.985)" fill="#262624"/>
<circle opacity="0.5" cx="147.199" cy="245.985" r="2.28889" transform="rotate(94 147.199 245.985)" fill="#262624"/>
<circle opacity="0.5" cx="166.126" cy="255.448" r="2.28889" transform="rotate(94 166.126 255.448)" fill="#262624"/>
<circle opacity="0.5" cx="156.662" cy="255.448" r="2.28889" transform="rotate(94 156.662 255.448)" fill="#262624"/>
<circle opacity="0.5" cx="147.199" cy="255.448" r="2.28889" transform="rotate(94 147.199 255.448)" fill="#262624"/>
<circle opacity="0.5" cx="137.735" cy="255.448" r="2.28889" transform="rotate(94 137.735 255.448)" fill="#262624"/>
<circle opacity="0.5" cx="166.126" cy="264.912" r="2.28889" transform="rotate(94 166.126 264.912)" fill="#262624"/>
<circle opacity="0.5" cx="156.662" cy="264.912" r="2.28889" transform="rotate(94 156.662 264.912)" fill="#262624"/>
<circle opacity="0.5" cx="147.199" cy="264.912" r="2.28889" transform="rotate(94 147.199 264.912)" fill="#262624"/>
<circle opacity="0.5" cx="137.735" cy="264.912" r="2.28889" transform="rotate(94 137.735 264.912)" fill="#262624"/>
<circle opacity="0.5" cx="156.662" cy="274.376" r="2.28889" transform="rotate(94 156.662 274.376)" fill="#262624"/>
<circle opacity="0.5" cx="147.199" cy="274.376" r="2.28889" transform="rotate(94 147.199 274.376)" fill="#262624"/>
<path d="M145.34 247.899L139.999 253.24" stroke="#73736E" stroke-width="0.305185" stroke-linecap="round"/>
<path d="M154.496 247.899L149.155 253.24" stroke="#73736E" stroke-width="0.305185" stroke-linecap="round"/>
<path d="M145.34 257.818L139.999 263.159" stroke="#73736E" stroke-width="0.305185" stroke-linecap="round"/>
<path d="M154.496 257.818L149.155 263.159" stroke="#73736E" stroke-width="0.305185" stroke-linecap="round"/>
<path d="M154.496 266.974L149.155 272.314" stroke="#73736E" stroke-width="0.305185" stroke-linecap="round"/>
<path d="M163.652 266.974L158.312 272.314" stroke="#73736E" stroke-width="0.305185" stroke-linecap="round"/>
<path d="M156.786 267.737V271.551" stroke="#73736E" stroke-width="0.305185" stroke-linecap="round"/>
<path d="M146.868 267.737V271.551" stroke="#73736E" stroke-width="0.305185" stroke-linecap="round"/>
<path d="M159.838 255.529H163.653" stroke="#73736E" stroke-width="0.305185" stroke-linecap="round"/>
<path d="M159.838 265.447H163.653" stroke="#73736E" stroke-width="0.305185" stroke-linecap="round"/>
<path d="M156.786 258.581V262.396" stroke="#73736E" stroke-width="0.305185" stroke-linecap="round"/>
<path d="M137.711 258.581V262.396" stroke="#73736E" stroke-width="0.305185" stroke-linecap="round"/>
<path d="M165.941 258.581V262.396" stroke="#73736E" stroke-width="0.305185" stroke-linecap="round"/>
<path d="M146.868 258.581V262.396" stroke="#73736E" stroke-width="0.305185" stroke-linecap="round"/>
<path d="M149.92 255.392H153.735" stroke="#73736E" stroke-width="0.305185" stroke-linecap="round"/>
<path d="M149.92 265.311H153.735" stroke="#73736E" stroke-width="0.305185" stroke-linecap="round"/>
<path d="M149.92 274.603H153.735" stroke="#73736E" stroke-width="0.305185" stroke-linecap="round"/>
<path d="M149.92 245.61H153.735" stroke="#73736E" stroke-width="0.305185" stroke-linecap="round"/>
<path d="M156.786 248.663V252.477" stroke="#73736E" stroke-width="0.305185" stroke-linecap="round"/>
<path d="M146.868 248.663V252.477" stroke="#73736E" stroke-width="0.305185" stroke-linecap="round"/>
<path d="M140.766 255.244H144.58" stroke="#73736E" stroke-width="0.305185" stroke-linecap="round"/>
<path d="M140.766 265.163H144.58" stroke="#73736E" stroke-width="0.305185" stroke-linecap="round"/>
<path d="M154.496 272.314L149.155 266.973" stroke="#73736E" stroke-width="0.305185" stroke-linecap="round"/>
<path d="M145.34 272.314L139.999 266.973" stroke="#73736E" stroke-width="0.305185" stroke-linecap="round"/>
<path d="M154.496 263.158L149.155 257.818" stroke="#73736E" stroke-width="0.305185" stroke-linecap="round"/>
<path d="M154.496 253.24L149.155 247.899" stroke="#73736E" stroke-width="0.305185" stroke-linecap="round"/>
<path d="M164.416 263.158L159.075 257.818" stroke="#73736E" stroke-width="0.305185" stroke-linecap="round"/>
<path d="M164.416 253.24L159.075 247.899" stroke="#73736E" stroke-width="0.305185" stroke-linecap="round"/>
<path d="M145.34 263.158L139.999 257.818" stroke="#73736E" stroke-width="0.305185" stroke-linecap="round"/>
<path d="M164.416 257.818L159.075 263.159" stroke="#73736E" stroke-width="0.305185" stroke-linecap="round"/>
<rect x="249.237" y="206" width="47.8296" height="47.8296" rx="23.9148" transform="rotate(-45 249.237 206)" stroke="#D5D5CF"/>
<circle opacity="0.5" cx="269.13" cy="201.352" r="2.28889" transform="rotate(4 269.13 201.352)" fill="#262624"/>
<circle opacity="0.5" cx="269.13" cy="210.816" r="2.28889" transform="rotate(4 269.13 210.816)" fill="#262624"/>
<circle opacity="0.5" cx="278.594" cy="191.888" r="2.28889" transform="rotate(4 278.594 191.888)" fill="#262624"/>
<circle opacity="0.5" cx="278.594" cy="201.352" r="2.28889" transform="rotate(4 278.594 201.352)" fill="#262624"/>
<circle opacity="0.5" cx="278.594" cy="210.816" r="2.28889" transform="rotate(4 278.594 210.816)" fill="#262624"/>
<circle opacity="0.5" cx="278.594" cy="220.279" r="2.28889" transform="rotate(4 278.594 220.279)" fill="#262624"/>
<circle opacity="0.5" cx="288.058" cy="191.888" r="2.28889" transform="rotate(4 288.058 191.888)" fill="#262624"/>
<circle opacity="0.5" cx="288.058" cy="201.352" r="2.28889" transform="rotate(4 288.058 201.352)" fill="#262624"/>
<circle opacity="0.5" cx="288.058" cy="210.815" r="2.28889" transform="rotate(4 288.058 210.815)" fill="#262624"/>
<circle opacity="0.5" cx="288.058" cy="220.279" r="2.28889" transform="rotate(4 288.058 220.279)" fill="#262624"/>
<circle opacity="0.5" cx="297.522" cy="201.352" r="2.28889" transform="rotate(4 297.522 201.352)" fill="#262624"/>
<circle opacity="0.5" cx="297.522" cy="210.815" r="2.28889" transform="rotate(4 297.522 210.815)" fill="#262624"/>
<path d="M271.047 212.672L276.388 218.013" stroke="#73736E" stroke-width="0.305185" stroke-linecap="round"/>
<path d="M271.047 203.517L276.388 208.857" stroke="#73736E" stroke-width="0.305185" stroke-linecap="round"/>
<path d="M280.965 212.672L286.306 218.013" stroke="#73736E" stroke-width="0.305185" stroke-linecap="round"/>
<path d="M280.965 203.517L286.306 208.857" stroke="#73736E" stroke-width="0.305185" stroke-linecap="round"/>
<path d="M290.12 203.517L295.461 208.857" stroke="#73736E" stroke-width="0.305185" stroke-linecap="round"/>
<path d="M290.12 194.361L295.461 199.702" stroke="#73736E" stroke-width="0.305185" stroke-linecap="round"/>
<path d="M290.885 201.228H294.7" stroke="#73736E" stroke-width="0.305185" stroke-linecap="round"/>
<path d="M290.885 211.146H294.7" stroke="#73736E" stroke-width="0.305185" stroke-linecap="round"/>
<path d="M278.678 198.176V194.361" stroke="#73736E" stroke-width="0.305185" stroke-linecap="round"/>
<path d="M288.595 198.176V194.361" stroke="#73736E" stroke-width="0.305185" stroke-linecap="round"/>
<path d="M281.729 201.228H285.543" stroke="#73736E" stroke-width="0.305185" stroke-linecap="round"/>
<path d="M281.729 220.302H285.543" stroke="#73736E" stroke-width="0.305185" stroke-linecap="round"/>
<path d="M281.729 192.072H285.543" stroke="#73736E" stroke-width="0.305185" stroke-linecap="round"/>
<path d="M281.729 211.146H285.543" stroke="#73736E" stroke-width="0.305185" stroke-linecap="round"/>
<path d="M278.54 208.093V204.278" stroke="#73736E" stroke-width="0.305185" stroke-linecap="round"/>
<path d="M288.459 208.093V204.278" stroke="#73736E" stroke-width="0.305185" stroke-linecap="round"/>
<path d="M297.749 208.093V204.278" stroke="#73736E" stroke-width="0.305185" stroke-linecap="round"/>
<path d="M268.758 208.093V204.278" stroke="#73736E" stroke-width="0.305185" stroke-linecap="round"/>
<path d="M271.809 201.228H275.623" stroke="#73736E" stroke-width="0.305185" stroke-linecap="round"/>
<path d="M271.809 211.146H275.623" stroke="#73736E" stroke-width="0.305185" stroke-linecap="round"/>
<path d="M278.392 217.248V213.433" stroke="#73736E" stroke-width="0.305185" stroke-linecap="round"/>
<path d="M288.31 217.248V213.433" stroke="#73736E" stroke-width="0.305185" stroke-linecap="round"/>
<path d="M295.462 203.517L290.121 208.857" stroke="#73736E" stroke-width="0.305185" stroke-linecap="round"/>
<path d="M295.462 212.672L290.121 218.013" stroke="#73736E" stroke-width="0.305185" stroke-linecap="round"/>
<path d="M286.306 203.517L280.965 208.857" stroke="#73736E" stroke-width="0.305185" stroke-linecap="round"/>
<path d="M276.388 203.517L271.047 208.857" stroke="#73736E" stroke-width="0.305185" stroke-linecap="round"/>
<path d="M286.306 193.598L280.965 198.939" stroke="#73736E" stroke-width="0.305185" stroke-linecap="round"/>
<path d="M276.388 193.598L271.047 198.939" stroke="#73736E" stroke-width="0.305185" stroke-linecap="round"/>
<path d="M286.306 212.672L280.965 218.013" stroke="#73736E" stroke-width="0.305185" stroke-linecap="round"/>
<path d="M280.965 193.598L286.306 198.939" stroke="#73736E" stroke-width="0.305185" stroke-linecap="round"/>
<path d="M273.14 173.192L272.744 176.25L275.59 175.064L273.14 173.192ZM276.954 182.348L277.351 179.29L274.504 180.476L276.954 182.348ZM274.064 175.411L273.818 175.514L275.784 180.232L276.03 180.129L276.277 180.027L274.311 175.308L274.064 175.411Z" fill="#73736E"/>
<path d="M231.177 131.23L232.955 133.749L234.247 130.949L231.177 131.23ZM241.095 135.808L239.317 133.289L238.025 136.089L241.095 135.808ZM233.359 132.237L233.247 132.48L238.801 135.043L238.913 134.801L239.025 134.558L233.471 131.995L233.359 132.237Z" fill="#73736E"/>
<path d="M238.807 206L241.477 207.542V204.458L238.807 206ZM257.881 206L255.21 204.458V207.542L257.881 206ZM241.21 206V206.267H255.477V206V205.733H241.21V206Z" fill="#73736E"/>
<path d="M153.355 206L156.026 207.542V204.458L153.355 206ZM172.43 206L169.759 204.458V207.542L172.43 206ZM155.759 206V206.267H170.026V206V205.733H155.759V206Z" fill="#73736E"/>
<rect x="259.911" y="226.166" width="47.8296" height="47.8296" rx="23.9148" transform="rotate(45 259.911 226.166)" stroke="#D5D5CF"/>
<circle opacity="0.5" cx="264.561" cy="246.059" r="2.28889" transform="rotate(94 264.561 246.059)" fill="#262624"/>
<circle opacity="0.5" cx="255.097" cy="246.059" r="2.28889" transform="rotate(94 255.097 246.059)" fill="#262624"/>
<circle opacity="0.5" cx="274.025" cy="255.523" r="2.28889" transform="rotate(94 274.025 255.523)" fill="#262624"/>
<circle opacity="0.5" cx="264.561" cy="255.523" r="2.28889" transform="rotate(94 264.561 255.523)" fill="#262624"/>
<circle opacity="0.5" cx="255.097" cy="255.523" r="2.28889" transform="rotate(94 255.097 255.523)" fill="#262624"/>
<circle opacity="0.5" cx="245.633" cy="255.523" r="2.28889" transform="rotate(94 245.633 255.523)" fill="#262624"/>
<circle opacity="0.5" cx="274.025" cy="264.987" r="2.28889" transform="rotate(94 274.025 264.987)" fill="#262624"/>
<circle opacity="0.5" cx="264.561" cy="264.987" r="2.28889" transform="rotate(94 264.561 264.987)" fill="#262624"/>
<circle opacity="0.5" cx="255.097" cy="264.987" r="2.28889" transform="rotate(94 255.097 264.987)" fill="#262624"/>
<circle opacity="0.5" cx="245.633" cy="264.987" r="2.28889" transform="rotate(94 245.633 264.987)" fill="#262624"/>
<circle opacity="0.5" cx="264.561" cy="274.45" r="2.28889" transform="rotate(94 264.561 274.45)" fill="#262624"/>
<circle opacity="0.5" cx="255.097" cy="274.45" r="2.28889" transform="rotate(94 255.097 274.45)" fill="#262624"/>
<path d="M253.239 247.974L247.899 253.315" stroke="#73736E" stroke-width="0.305185" stroke-linecap="round"/>
<path d="M262.395 247.974L257.054 253.315" stroke="#73736E" stroke-width="0.305185" stroke-linecap="round"/>
<path d="M253.239 257.893L247.899 263.233" stroke="#73736E" stroke-width="0.305185" stroke-linecap="round"/>
<path d="M262.395 257.893L257.054 263.233" stroke="#73736E" stroke-width="0.305185" stroke-linecap="round"/>
<path d="M262.395 267.048L257.054 272.389" stroke="#73736E" stroke-width="0.305185" stroke-linecap="round"/>
<path d="M271.552 267.048L266.211 272.389" stroke="#73736E" stroke-width="0.305185" stroke-linecap="round"/>
<path d="M264.685 267.811V271.626" stroke="#73736E" stroke-width="0.305185" stroke-linecap="round"/>
<path d="M254.767 267.811V271.626" stroke="#73736E" stroke-width="0.305185" stroke-linecap="round"/>
<path d="M267.736 255.604H271.551" stroke="#73736E" stroke-width="0.305185" stroke-linecap="round"/>
<path d="M267.736 265.522H271.551" stroke="#73736E" stroke-width="0.305185" stroke-linecap="round"/>
<path d="M264.685 258.655V262.47" stroke="#73736E" stroke-width="0.305185" stroke-linecap="round"/>
<path d="M245.61 258.655V262.47" stroke="#73736E" stroke-width="0.305185" stroke-linecap="round"/>
<path d="M273.84 258.655V262.47" stroke="#73736E" stroke-width="0.305185" stroke-linecap="round"/>
<path d="M254.767 258.655V262.47" stroke="#73736E" stroke-width="0.305185" stroke-linecap="round"/>
<path d="M257.819 255.467H261.634" stroke="#73736E" stroke-width="0.305185" stroke-linecap="round"/>
<path d="M257.819 265.385H261.634" stroke="#73736E" stroke-width="0.305185" stroke-linecap="round"/>
<path d="M257.819 274.677H261.634" stroke="#73736E" stroke-width="0.305185" stroke-linecap="round"/>
<path d="M257.819 245.685H261.634" stroke="#73736E" stroke-width="0.305185" stroke-linecap="round"/>
<path d="M264.685 248.737V252.552" stroke="#73736E" stroke-width="0.305185" stroke-linecap="round"/>
<path d="M254.767 248.737V252.552" stroke="#73736E" stroke-width="0.305185" stroke-linecap="round"/>
<path d="M248.663 255.319H252.478" stroke="#73736E" stroke-width="0.305185" stroke-linecap="round"/>
<path d="M248.663 265.238H252.478" stroke="#73736E" stroke-width="0.305185" stroke-linecap="round"/>
<path d="M262.395 272.389L257.054 267.048" stroke="#73736E" stroke-width="0.305185" stroke-linecap="round"/>
<path d="M253.239 272.389L247.899 267.048" stroke="#73736E" stroke-width="0.305185" stroke-linecap="round"/>
<path d="M262.395 263.233L257.054 257.892" stroke="#73736E" stroke-width="0.305185" stroke-linecap="round"/>
<path d="M262.395 253.314L257.054 247.974" stroke="#73736E" stroke-width="0.305185" stroke-linecap="round"/>
<path d="M272.312 263.233L266.972 257.892" stroke="#73736E" stroke-width="0.305185" stroke-linecap="round"/>
<path d="M272.312 253.314L266.972 247.974" stroke="#73736E" stroke-width="0.305185" stroke-linecap="round"/>
<path d="M253.239 263.233L247.899 257.892" stroke="#73736E" stroke-width="0.305185" stroke-linecap="round"/>
<path d="M272.312 257.893L266.972 263.233" stroke="#73736E" stroke-width="0.305185" stroke-linecap="round"/>
<rect x="95.1202" y="206" width="47.8296" height="47.8296" rx="23.9148" transform="rotate(-45 95.1202 206)" stroke="#D5D5CF"/>
<circle opacity="0.5" cx="115.012" cy="201.352" r="2.28889" transform="rotate(4 115.012 201.352)" fill="#262624"/>
<circle opacity="0.5" cx="115.012" cy="210.815" r="2.28889" transform="rotate(4 115.012 210.815)" fill="#262624"/>
<circle opacity="0.5" cx="124.476" cy="191.888" r="2.28889" transform="rotate(4 124.476 191.888)" fill="#262624"/>
<circle opacity="0.5" cx="124.476" cy="201.352" r="2.28889" transform="rotate(4 124.476 201.352)" fill="#262624"/>
<circle opacity="0.5" cx="124.476" cy="210.815" r="2.28889" transform="rotate(4 124.476 210.815)" fill="#262624"/>
<circle opacity="0.5" cx="124.476" cy="220.279" r="2.28889" transform="rotate(4 124.476 220.279)" fill="#262624"/>
<circle opacity="0.5" cx="133.94" cy="191.888" r="2.28889" transform="rotate(4 133.94 191.888)" fill="#262624"/>
<circle opacity="0.5" cx="133.94" cy="201.352" r="2.28889" transform="rotate(4 133.94 201.352)" fill="#262624"/>
<circle opacity="0.5" cx="133.94" cy="210.816" r="2.28889" transform="rotate(4 133.94 210.816)" fill="#262624"/>
<circle opacity="0.5" cx="133.94" cy="220.279" r="2.28889" transform="rotate(4 133.94 220.279)" fill="#262624"/>
<circle opacity="0.5" cx="143.404" cy="201.352" r="2.28889" transform="rotate(4 143.404 201.352)" fill="#262624"/>
<circle opacity="0.5" cx="143.404" cy="210.816" r="2.28889" transform="rotate(4 143.404 210.816)" fill="#262624"/>
<path d="M116.928 212.672L122.268 218.013" stroke="#73736E" stroke-width="0.305185" stroke-linecap="round"/>
<path d="M116.928 203.517L122.268 208.857" stroke="#73736E" stroke-width="0.305185" stroke-linecap="round"/>
<path d="M126.848 212.672L132.188 218.013" stroke="#73736E" stroke-width="0.305185" stroke-linecap="round"/>
<path d="M126.848 203.517L132.188 208.857" stroke="#73736E" stroke-width="0.305185" stroke-linecap="round"/>
<path d="M136.002 203.517L141.343 208.857" stroke="#73736E" stroke-width="0.305185" stroke-linecap="round"/>
<path d="M136.002 194.361L141.343 199.702" stroke="#73736E" stroke-width="0.305185" stroke-linecap="round"/>
<path d="M136.767 201.228H140.581" stroke="#73736E" stroke-width="0.305185" stroke-linecap="round"/>
<path d="M136.767 211.146H140.581" stroke="#73736E" stroke-width="0.305185" stroke-linecap="round"/>
<path d="M124.558 198.176V194.361" stroke="#73736E" stroke-width="0.305185" stroke-linecap="round"/>
<path d="M134.476 198.176V194.361" stroke="#73736E" stroke-width="0.305185" stroke-linecap="round"/>
<path d="M127.609 201.228H131.424" stroke="#73736E" stroke-width="0.305185" stroke-linecap="round"/>
<path d="M127.609 220.302H131.424" stroke="#73736E" stroke-width="0.305185" stroke-linecap="round"/>
<path d="M127.609 192.072H131.424" stroke="#73736E" stroke-width="0.305185" stroke-linecap="round"/>
<path d="M127.609 211.146H131.424" stroke="#73736E" stroke-width="0.305185" stroke-linecap="round"/>
<path d="M124.421 208.093V204.278" stroke="#73736E" stroke-width="0.305185" stroke-linecap="round"/>
<path d="M134.34 208.093V204.278" stroke="#73736E" stroke-width="0.305185" stroke-linecap="round"/>
<path d="M143.632 208.093V204.278" stroke="#73736E" stroke-width="0.305185" stroke-linecap="round"/>
<path d="M114.639 208.093V204.278" stroke="#73736E" stroke-width="0.305185" stroke-linecap="round"/>
<path d="M117.689 201.228H121.504" stroke="#73736E" stroke-width="0.305185" stroke-linecap="round"/>
<path d="M117.689 211.146H121.504" stroke="#73736E" stroke-width="0.305185" stroke-linecap="round"/>
<path d="M124.272 217.248V213.433" stroke="#73736E" stroke-width="0.305185" stroke-linecap="round"/>
<path d="M134.191 217.248V213.433" stroke="#73736E" stroke-width="0.305185" stroke-linecap="round"/>
<path d="M141.343 203.517L136.002 208.857" stroke="#73736E" stroke-width="0.305185" stroke-linecap="round"/>
<path d="M141.343 212.672L136.002 218.013" stroke="#73736E" stroke-width="0.305185" stroke-linecap="round"/>
<path d="M132.187 203.517L126.846 208.857" stroke="#73736E" stroke-width="0.305185" stroke-linecap="round"/>
<path d="M122.269 203.517L116.928 208.857" stroke="#73736E" stroke-width="0.305185" stroke-linecap="round"/>
<path d="M132.187 193.598L126.846 198.939" stroke="#73736E" stroke-width="0.305185" stroke-linecap="round"/>
<path d="M122.269 193.598L116.928 198.939" stroke="#73736E" stroke-width="0.305185" stroke-linecap="round"/>
<path d="M132.187 212.672L126.846 218.013" stroke="#73736E" stroke-width="0.305185" stroke-linecap="round"/>
<path d="M126.848 193.598L132.188 198.939" stroke="#73736E" stroke-width="0.305185" stroke-linecap="round"/>
<path d="M135.045 230.415L135.017 233.498L137.701 231.981L135.045 230.415ZM139.755 238.75L139.784 235.666L137.099 237.183L139.755 238.75ZM136.227 232.507L135.995 232.638L138.341 236.789L138.573 236.657L138.805 236.526L136.46 232.376L136.227 232.507Z" fill="#73736E"/>
<rect x="152.089" y="118.193" width="47.8296" height="47.8296" rx="23.9148" transform="rotate(45 152.089 118.193)" stroke="#D5D5CF"/>
<circle opacity="0.5" cx="156.737" cy="138.086" r="2.28889" transform="rotate(94 156.737 138.086)" fill="#262624"/>
<circle opacity="0.5" cx="147.273" cy="138.086" r="2.28889" transform="rotate(94 147.273 138.086)" fill="#262624"/>
<circle opacity="0.5" cx="166.201" cy="147.549" r="2.28889" transform="rotate(94 166.201 147.549)" fill="#262624"/>
<circle opacity="0.5" cx="156.737" cy="147.549" r="2.28889" transform="rotate(94 156.737 147.549)" fill="#262624"/>
<circle opacity="0.5" cx="147.273" cy="147.549" r="2.28889" transform="rotate(94 147.273 147.549)" fill="#262624"/>
<circle opacity="0.5" cx="137.81" cy="147.549" r="2.28889" transform="rotate(94 137.81 147.549)" fill="#262624"/>
<circle opacity="0.5" cx="166.201" cy="157.013" r="2.28889" transform="rotate(94 166.201 157.013)" fill="#262624"/>
<circle opacity="0.5" cx="156.737" cy="157.013" r="2.28889" transform="rotate(94 156.737 157.013)" fill="#262624"/>
<circle opacity="0.5" cx="147.273" cy="157.013" r="2.28889" transform="rotate(94 147.273 157.013)" fill="#262624"/>
<circle opacity="0.5" cx="137.81" cy="157.013" r="2.28889" transform="rotate(94 137.81 157.013)" fill="#262624"/>
<circle opacity="0.5" cx="156.737" cy="166.477" r="2.28889" transform="rotate(94 156.737 166.477)" fill="#262624"/>
<circle opacity="0.5" cx="147.273" cy="166.477" r="2.28889" transform="rotate(94 147.273 166.477)" fill="#262624"/>
<path d="M145.417 140L140.076 145.341" stroke="#73736E" stroke-width="0.305185" stroke-linecap="round"/>
<path d="M154.571 140L149.231 145.341" stroke="#73736E" stroke-width="0.305185" stroke-linecap="round"/>
<path d="M145.417 149.919L140.076 155.259" stroke="#73736E" stroke-width="0.305185" stroke-linecap="round"/>
<path d="M154.571 149.919L149.231 155.259" stroke="#73736E" stroke-width="0.305185" stroke-linecap="round"/>
<path d="M154.571 159.074L149.231 164.415" stroke="#73736E" stroke-width="0.305185" stroke-linecap="round"/>
<path d="M163.727 159.074L158.386 164.415" stroke="#73736E" stroke-width="0.305185" stroke-linecap="round"/>
<path d="M156.859 159.837V163.652" stroke="#73736E" stroke-width="0.305185" stroke-linecap="round"/>
<path d="M146.942 159.837V163.652" stroke="#73736E" stroke-width="0.305185" stroke-linecap="round"/>
<path d="M159.912 147.63H163.727" stroke="#73736E" stroke-width="0.305185" stroke-linecap="round"/>
<path d="M159.912 157.548H163.727" stroke="#73736E" stroke-width="0.305185" stroke-linecap="round"/>
<path d="M156.859 150.681V154.496" stroke="#73736E" stroke-width="0.305185" stroke-linecap="round"/>
<path d="M137.786 150.681V154.496" stroke="#73736E" stroke-width="0.305185" stroke-linecap="round"/>
<path d="M166.014 150.681V154.496" stroke="#73736E" stroke-width="0.305185" stroke-linecap="round"/>
<path d="M146.942 150.681V154.496" stroke="#73736E" stroke-width="0.305185" stroke-linecap="round"/>
<path d="M149.994 147.493H153.809" stroke="#73736E" stroke-width="0.305185" stroke-linecap="round"/>
<path d="M149.994 157.412H153.809" stroke="#73736E" stroke-width="0.305185" stroke-linecap="round"/>
<path d="M149.994 166.704H153.809" stroke="#73736E" stroke-width="0.305185" stroke-linecap="round"/>
<path d="M149.994 137.711H153.809" stroke="#73736E" stroke-width="0.305185" stroke-linecap="round"/>
<path d="M156.859 140.763V144.578" stroke="#73736E" stroke-width="0.305185" stroke-linecap="round"/>
<path d="M146.942 140.763V144.578" stroke="#73736E" stroke-width="0.305185" stroke-linecap="round"/>
<path d="M140.841 147.345H144.656" stroke="#73736E" stroke-width="0.305185" stroke-linecap="round"/>
<path d="M140.841 157.264H144.656" stroke="#73736E" stroke-width="0.305185" stroke-linecap="round"/>
<path d="M154.571 164.415L149.231 159.074" stroke="#73736E" stroke-width="0.305185" stroke-linecap="round"/>
<path d="M145.417 164.415L140.076 159.074" stroke="#73736E" stroke-width="0.305185" stroke-linecap="round"/>
<path d="M154.571 155.259L149.231 149.919" stroke="#73736E" stroke-width="0.305185" stroke-linecap="round"/>
<path d="M154.571 145.341L149.231 140" stroke="#73736E" stroke-width="0.305185" stroke-linecap="round"/>
<path d="M164.489 155.259L159.149 149.919" stroke="#73736E" stroke-width="0.305185" stroke-linecap="round"/>
<path d="M164.489 145.341L159.149 140" stroke="#73736E" stroke-width="0.305185" stroke-linecap="round"/>
<path d="M145.417 155.259L140.076 149.919" stroke="#73736E" stroke-width="0.305185" stroke-linecap="round"/>
<path d="M164.489 149.919L159.149 155.259" stroke="#73736E" stroke-width="0.305185" stroke-linecap="round"/>
<circle opacity="0.5" cx="92.4723" cy="332.043" r="2.28889" transform="rotate(-86 92.4723 332.043)" fill="#262624"/>
<circle opacity="0.5" cx="92.4723" cy="322.124" r="2.28889" transform="rotate(-86 92.4723 322.124)" fill="#262624"/>
<circle opacity="0.5" cx="81.7916" cy="332.454" r="2.28889" transform="rotate(-86 81.7916 332.454)" fill="#262624"/>
<circle opacity="0.5" cx="81.7916" cy="322.536" r="2.28889" transform="rotate(-86 81.7916 322.536)" fill="#262624"/>
<circle opacity="0.5" cx="81.7916" cy="332.395" r="2.28889" transform="rotate(-86 81.7916 332.395)" fill="#262624"/>
<circle opacity="0.5" cx="81.7916" cy="322.477" r="2.28889" transform="rotate(-86 81.7916 322.477)" fill="#262624"/>
</g>
<rect x="80.6104" y="331.389" width="250.778" height="250.778" rx="125.389" transform="rotate(-90 80.6104 331.389)" stroke="#D5D5CF" stroke-linecap="round"/>
<rect x="182.085" y="16.5222" width="47.8296" height="47.8296" rx="23.9148" fill="#FAFAF8"/>
<rect x="182.085" y="16.5222" width="47.8296" height="47.8296" rx="23.9148" stroke="#D5D5CF"/>
<circle opacity="0.5" cx="193.216" cy="31.2413" r="2.28889" transform="rotate(4 193.216 31.2413)" fill="#262624"/>
<circle opacity="0.5" cx="193.216" cy="40.7049" r="2.28889" transform="rotate(4 193.216 40.7049)" fill="#262624"/>
<circle opacity="0.5" cx="193.216" cy="50.1688" r="2.28889" transform="rotate(4 193.216 50.1688)" fill="#262624"/>
<circle opacity="0.5" cx="201.918" cy="26.5094" r="2.28889" transform="rotate(4 201.918 26.5094)" fill="#262624"/>
<circle opacity="0.5" cx="201.918" cy="35.973" r="2.28889" transform="rotate(4 201.918 35.973)" fill="#262624"/>
<circle opacity="0.5" cx="201.918" cy="45.4369" r="2.28889" transform="rotate(4 201.918 45.4369)" fill="#262624"/>
<circle opacity="0.5" cx="201.918" cy="54.9005" r="2.28889" transform="rotate(4 201.918 54.9005)" fill="#262624"/>
<circle opacity="0.5" cx="210.618" cy="26.5094" r="2.28889" transform="rotate(4 210.618 26.5094)" fill="#262624"/>
<circle opacity="0.5" cx="210.618" cy="35.9728" r="2.28889" transform="rotate(4 210.618 35.9728)" fill="#262624"/>
<circle opacity="0.5" cx="210.618" cy="45.4371" r="2.28889" transform="rotate(4 210.618 45.4371)" fill="#262624"/>
<circle opacity="0.5" cx="210.618" cy="54.9005" r="2.28889" transform="rotate(4 210.618 54.9005)" fill="#262624"/>
<circle opacity="0.5" cx="219.319" cy="31.2413" r="2.28889" transform="rotate(4 219.319 31.2413)" fill="#262624"/>
<circle opacity="0.5" cx="219.319" cy="40.7052" r="2.28889" transform="rotate(4 219.319 40.7052)" fill="#262624"/>
<circle opacity="0.5" cx="219.319" cy="50.1686" r="2.28889" transform="rotate(4 219.319 50.1686)" fill="#262624"/>
<g clip-path="url(#clip2_2041_804)">
<rect x="322.746" y="56.459" width="48.8296" height="48.8296" rx="24.4148" transform="rotate(45 322.746 56.459)" fill="#FAFAF8"/>
<circle opacity="0.5" cx="320.209" cy="75.4454" r="2.28889" transform="rotate(49 320.209 75.4454)" fill="#262624"/>
<circle opacity="0.5" cx="313.517" cy="82.1373" r="2.28889" transform="rotate(49 313.517 82.1373)" fill="#262624"/>
<circle opacity="0.5" cx="306.825" cy="88.8292" r="2.28889" transform="rotate(49 306.825 88.8292)" fill="#262624"/>
<circle opacity="0.5" cx="329.707" cy="78.2518" r="2.28889" transform="rotate(49 329.707 78.2518)" fill="#262624"/>
<circle opacity="0.5" cx="323.015" cy="84.9437" r="2.28889" transform="rotate(49 323.015 84.9437)" fill="#262624"/>
<circle opacity="0.5" cx="316.323" cy="91.6356" r="2.28889" transform="rotate(49 316.323 91.6356)" fill="#262624"/>
<circle opacity="0.5" cx="309.632" cy="98.3275" r="2.28889" transform="rotate(49 309.632 98.3275)" fill="#262624"/>
<circle opacity="0.5" cx="335.859" cy="84.4041" r="2.28889" transform="rotate(49 335.859 84.4041)" fill="#262624"/>
<circle opacity="0.5" cx="329.168" cy="91.096" r="2.28889" transform="rotate(49 329.168 91.096)" fill="#262624"/>
<circle opacity="0.5" cx="322.475" cy="97.7879" r="2.28889" transform="rotate(49 322.475 97.7879)" fill="#262624"/>
<circle opacity="0.5" cx="315.784" cy="104.48" r="2.28889" transform="rotate(49 315.784 104.48)" fill="#262624"/>
<circle opacity="0.5" cx="338.666" cy="93.9024" r="2.28889" transform="rotate(49 338.666 93.9024)" fill="#262624"/>
<circle opacity="0.5" cx="331.974" cy="100.594" r="2.28889" transform="rotate(49 331.974 100.594)" fill="#262624"/>
<circle opacity="0.5" cx="325.282" cy="107.286" r="2.28889" transform="rotate(49 325.282 107.286)" fill="#262624"/>
</g>
<rect x="322.746" y="57.1661" width="47.8296" height="47.8296" rx="23.9148" transform="rotate(45 322.746 57.1661)" stroke="#D5D5CF"/>
<rect x="182.085" y="347.648" width="47.8296" height="47.8296" rx="23.9148" fill="#FAFAF8"/>
<rect x="182.085" y="347.648" width="47.8296" height="47.8296" rx="23.9148" stroke="#D5D5CF"/>
<circle opacity="0.5" cx="193.216" cy="362.367" r="2.28889" transform="rotate(4 193.216 362.367)" fill="#262624"/>
<circle opacity="0.5" cx="193.216" cy="371.831" r="2.28889" transform="rotate(4 193.216 371.831)" fill="#262624"/>
<circle opacity="0.5" cx="193.216" cy="381.295" r="2.28889" transform="rotate(4 193.216 381.295)" fill="#262624"/>
<circle opacity="0.5" cx="201.918" cy="357.635" r="2.28889" transform="rotate(4 201.918 357.635)" fill="#262624"/>
<circle opacity="0.5" cx="201.918" cy="367.099" r="2.28889" transform="rotate(4 201.918 367.099)" fill="#262624"/>
<circle opacity="0.5" cx="201.918" cy="376.563" r="2.28889" transform="rotate(4 201.918 376.563)" fill="#262624"/>
<circle opacity="0.5" cx="201.918" cy="386.026" r="2.28889" transform="rotate(4 201.918 386.026)" fill="#262624"/>
<circle opacity="0.5" cx="210.618" cy="357.635" r="2.28889" transform="rotate(4 210.618 357.635)" fill="#262624"/>
<circle opacity="0.5" cx="210.618" cy="367.099" r="2.28889" transform="rotate(4 210.618 367.099)" fill="#262624"/>
<circle opacity="0.5" cx="210.618" cy="376.563" r="2.28889" transform="rotate(4 210.618 376.563)" fill="#262624"/>
<circle opacity="0.5" cx="210.618" cy="386.026" r="2.28889" transform="rotate(4 210.618 386.026)" fill="#262624"/>
<circle opacity="0.5" cx="219.319" cy="362.367" r="2.28889" transform="rotate(4 219.319 362.367)" fill="#262624"/>
<circle opacity="0.5" cx="219.319" cy="371.831" r="2.28889" transform="rotate(4 219.319 371.831)" fill="#262624"/>
<circle opacity="0.5" cx="219.319" cy="381.295" r="2.28889" transform="rotate(4 219.319 381.295)" fill="#262624"/>
<g clip-path="url(#clip3_2041_804)">
<rect x="86.9668" y="286.546" width="48.8296" height="48.8296" rx="24.4148" transform="rotate(45 86.9668 286.546)" fill="#FAFAF8"/>
<circle opacity="0.5" cx="84.4305" cy="305.532" r="2.28889" transform="rotate(49 84.4305 305.532)" fill="#262624"/>
<circle opacity="0.5" cx="77.739" cy="312.224" r="2.28889" transform="rotate(49 77.739 312.224)" fill="#262624"/>
<circle opacity="0.5" cx="71.0467" cy="318.916" r="2.28889" transform="rotate(49 71.0467 318.916)" fill="#262624"/>
<circle opacity="0.5" cx="93.9285" cy="308.338" r="2.28889" transform="rotate(49 93.9285 308.338)" fill="#262624"/>
<circle opacity="0.5" cx="87.2371" cy="315.03" r="2.28889" transform="rotate(49 87.2371 315.03)" fill="#262624"/>
<circle opacity="0.5" cx="80.5447" cy="321.722" r="2.28889" transform="rotate(49 80.5447 321.722)" fill="#262624"/>
<circle opacity="0.5" cx="73.8533" cy="328.414" r="2.28889" transform="rotate(49 73.8533 328.414)" fill="#262624"/>
<circle opacity="0.5" cx="100.081" cy="314.491" r="2.28889" transform="rotate(49 100.081 314.491)" fill="#262624"/>
<circle opacity="0.5" cx="93.3894" cy="321.183" r="2.28889" transform="rotate(49 93.3894 321.183)" fill="#262624"/>
<circle opacity="0.5" cx="86.6971" cy="327.875" r="2.28889" transform="rotate(49 86.6971 327.875)" fill="#262624"/>
<circle opacity="0.5" cx="80.0056" cy="334.566" r="2.28889" transform="rotate(49 80.0056 334.566)" fill="#262624"/>
<circle opacity="0.5" cx="102.887" cy="323.989" r="2.28889" transform="rotate(49 102.887 323.989)" fill="#262624"/>
<circle opacity="0.5" cx="96.1961" cy="330.681" r="2.28889" transform="rotate(49 96.1961 330.681)" fill="#262624"/>
<circle opacity="0.5" cx="89.5037" cy="337.373" r="2.28889" transform="rotate(49 89.5037 337.373)" fill="#262624"/>
</g>
<rect x="86.9668" y="287.253" width="47.8296" height="47.8296" rx="23.9148" transform="rotate(45 86.9668 287.253)" stroke="#D5D5CF"/>
<rect x="347.647" y="182.085" width="47.8296" height="47.8296" rx="23.9148" fill="#FAFAF8"/>
<rect x="347.647" y="182.085" width="47.8296" height="47.8296" rx="23.9148" stroke="#D5D5CF"/>
<circle opacity="0.5" cx="358.781" cy="196.804" r="2.28889" transform="rotate(4 358.781 196.804)" fill="#262624"/>
<circle opacity="0.5" cx="358.781" cy="206.268" r="2.28889" transform="rotate(4 358.781 206.268)" fill="#262624"/>
<circle opacity="0.5" cx="358.781" cy="215.732" r="2.28889" transform="rotate(4 358.781 215.732)" fill="#262624"/>
<circle opacity="0.5" cx="367.482" cy="192.072" r="2.28889" transform="rotate(4 367.482 192.072)" fill="#262624"/>
<circle opacity="0.5" cx="367.482" cy="201.536" r="2.28889" transform="rotate(4 367.482 201.536)" fill="#262624"/>
<circle opacity="0.5" cx="367.482" cy="211" r="2.28889" transform="rotate(4 367.482 211)" fill="#262624"/>
<circle opacity="0.5" cx="367.482" cy="220.463" r="2.28889" transform="rotate(4 367.482 220.463)" fill="#262624"/>
<circle opacity="0.5" cx="376.182" cy="192.072" r="2.28889" transform="rotate(4 376.182 192.072)" fill="#262624"/>
<circle opacity="0.5" cx="376.182" cy="201.536" r="2.28889" transform="rotate(4 376.182 201.536)" fill="#262624"/>
<circle opacity="0.5" cx="376.182" cy="211" r="2.28889" transform="rotate(4 376.182 211)" fill="#262624"/>
<circle opacity="0.5" cx="376.182" cy="220.463" r="2.28889" transform="rotate(4 376.182 220.463)" fill="#262624"/>
<circle opacity="0.5" cx="384.883" cy="196.804" r="2.28889" transform="rotate(4 384.883 196.804)" fill="#262624"/>
<circle opacity="0.5" cx="384.883" cy="206.268" r="2.28889" transform="rotate(4 384.883 206.268)" fill="#262624"/>
<circle opacity="0.5" cx="384.883" cy="215.732" r="2.28889" transform="rotate(4 384.883 215.732)" fill="#262624"/>
<g clip-path="url(#clip4_2041_804)">
<rect x="321.074" y="290.507" width="48.8296" height="48.8296" rx="24.4148" transform="rotate(45 321.074 290.507)" fill="#FAFAF8"/>
<circle opacity="0.5" cx="318.537" cy="309.493" r="2.28889" transform="rotate(49 318.537 309.493)" fill="#262624"/>
<circle opacity="0.5" cx="311.845" cy="316.184" r="2.28889" transform="rotate(49 311.845 316.184)" fill="#262624"/>
<circle opacity="0.5" cx="305.153" cy="322.876" r="2.28889" transform="rotate(49 305.153 322.876)" fill="#262624"/>
<circle opacity="0.5" cx="328.035" cy="312.299" r="2.28889" transform="rotate(49 328.035 312.299)" fill="#262624"/>
<circle opacity="0.5" cx="321.344" cy="318.991" r="2.28889" transform="rotate(49 321.344 318.991)" fill="#262624"/>
<circle opacity="0.5" cx="314.651" cy="325.682" r="2.28889" transform="rotate(49 314.651 325.682)" fill="#262624"/>
<circle opacity="0.5" cx="307.96" cy="332.375" r="2.28889" transform="rotate(49 307.96 332.375)" fill="#262624"/>
<circle opacity="0.5" cx="334.187" cy="318.451" r="2.28889" transform="rotate(49 334.187 318.451)" fill="#262624"/>
<circle opacity="0.5" cx="327.496" cy="325.143" r="2.28889" transform="rotate(49 327.496 325.143)" fill="#262624"/>
<circle opacity="0.5" cx="320.803" cy="331.835" r="2.28889" transform="rotate(49 320.803 331.835)" fill="#262624"/>
<circle opacity="0.5" cx="314.112" cy="338.527" r="2.28889" transform="rotate(49 314.112 338.527)" fill="#262624"/>
<circle opacity="0.5" cx="336.994" cy="327.95" r="2.28889" transform="rotate(49 336.994 327.95)" fill="#262624"/>
<circle opacity="0.5" cx="330.303" cy="334.641" r="2.28889" transform="rotate(49 330.303 334.641)" fill="#262624"/>
<circle opacity="0.5" cx="323.61" cy="341.333" r="2.28889" transform="rotate(49 323.61 341.333)" fill="#262624"/>
</g>
<rect x="321.074" y="291.214" width="47.8296" height="47.8296" rx="23.9148" transform="rotate(45 321.074 291.214)" stroke="#D5D5CF"/>
<rect x="16.5215" y="182.085" width="47.8296" height="47.8296" rx="23.9148" fill="#FAFAF8"/>
<rect x="16.5215" y="182.085" width="47.8296" height="47.8296" rx="23.9148" stroke="#D5D5CF"/>
<circle opacity="0.5" cx="27.6549" cy="196.804" r="2.28889" transform="rotate(4 27.6549 196.804)" fill="#262624"/>
<circle opacity="0.5" cx="27.6549" cy="206.268" r="2.28889" transform="rotate(4 27.6549 206.268)" fill="#262624"/>
<circle opacity="0.5" cx="27.6549" cy="215.732" r="2.28889" transform="rotate(4 27.6549 215.732)" fill="#262624"/>
<circle opacity="0.5" cx="36.3561" cy="192.072" r="2.28889" transform="rotate(4 36.3561 192.072)" fill="#262624"/>
<circle opacity="0.5" cx="36.3561" cy="201.536" r="2.28889" transform="rotate(4 36.3561 201.536)" fill="#262624"/>
<circle opacity="0.5" cx="36.3561" cy="211" r="2.28889" transform="rotate(4 36.3561 211)" fill="#262624"/>
<circle opacity="0.5" cx="36.3561" cy="220.463" r="2.28889" transform="rotate(4 36.3561 220.463)" fill="#262624"/>
<circle opacity="0.5" cx="45.0563" cy="192.072" r="2.28889" transform="rotate(4 45.0563 192.072)" fill="#262624"/>
<circle opacity="0.5" cx="45.0563" cy="201.536" r="2.28889" transform="rotate(4 45.0563 201.536)" fill="#262624"/>
<circle opacity="0.5" cx="45.0563" cy="211" r="2.28889" transform="rotate(4 45.0563 211)" fill="#262624"/>
<circle opacity="0.5" cx="45.0563" cy="220.463" r="2.28889" transform="rotate(4 45.0563 220.463)" fill="#262624"/>
<circle opacity="0.5" cx="53.7574" cy="196.804" r="2.28889" transform="rotate(4 53.7574 196.804)" fill="#262624"/>
<circle opacity="0.5" cx="53.7574" cy="206.268" r="2.28889" transform="rotate(4 53.7574 206.268)" fill="#262624"/>
<circle opacity="0.5" cx="53.7574" cy="215.732" r="2.28889" transform="rotate(4 53.7574 215.732)" fill="#262624"/>
<g clip-path="url(#clip5_2041_804)">
<rect x="90.9258" y="56.459" width="48.8296" height="48.8296" rx="24.4148" transform="rotate(45 90.9258 56.459)" fill="#FAFAF8"/>
<circle opacity="0.5" cx="88.3894" cy="75.4454" r="2.28889" transform="rotate(49 88.3894 75.4454)" fill="#262624"/>
<circle opacity="0.5" cx="81.698" cy="82.1373" r="2.28889" transform="rotate(49 81.698 82.1373)" fill="#262624"/>
<circle opacity="0.5" cx="75.0056" cy="88.8292" r="2.28889" transform="rotate(49 75.0056 88.8292)" fill="#262624"/>
<circle opacity="0.5" cx="97.8875" cy="78.2518" r="2.28889" transform="rotate(49 97.8875 78.2518)" fill="#262624"/>
<circle opacity="0.5" cx="91.1961" cy="84.9437" r="2.28889" transform="rotate(49 91.1961 84.9437)" fill="#262624"/>
<circle opacity="0.5" cx="84.5037" cy="91.6356" r="2.28889" transform="rotate(49 84.5037 91.6356)" fill="#262624"/>
<circle opacity="0.5" cx="77.8123" cy="98.3275" r="2.28889" transform="rotate(49 77.8123 98.3275)" fill="#262624"/>
<circle opacity="0.5" cx="104.04" cy="84.4041" r="2.28889" transform="rotate(49 104.04 84.4041)" fill="#262624"/>
<circle opacity="0.5" cx="97.3484" cy="91.0958" r="2.28889" transform="rotate(49 97.3484 91.0958)" fill="#262624"/>
<circle opacity="0.5" cx="90.656" cy="97.7879" r="2.28889" transform="rotate(49 90.656 97.7879)" fill="#262624"/>
<circle opacity="0.5" cx="83.9646" cy="104.48" r="2.28889" transform="rotate(49 83.9646 104.48)" fill="#262624"/>
<circle opacity="0.5" cx="106.846" cy="93.9024" r="2.28889" transform="rotate(49 106.846 93.9024)" fill="#262624"/>
<circle opacity="0.5" cx="100.155" cy="100.594" r="2.28889" transform="rotate(49 100.155 100.594)" fill="#262624"/>
<circle opacity="0.5" cx="93.4627" cy="107.286" r="2.28889" transform="rotate(49 93.4627 107.286)" fill="#262624"/>
</g>
<rect x="90.9258" y="57.1661" width="47.8296" height="47.8296" rx="23.9148" transform="rotate(45 90.9258 57.1661)" stroke="#D5D5CF"/>
<circle opacity="0.5" cx="365.118" cy="281.708" r="2.28889" transform="rotate(-68.1586 365.118 281.708)" fill="#262624"/>
<circle opacity="0.5" cx="64.1884" cy="152.556" r="2.28889" transform="rotate(-63.3626 64.1884 152.556)" fill="#262624"/>
<circle opacity="0.5" cx="138.841" cy="69.8569" r="2.28889" transform="rotate(-20.6481 138.841 69.8569)" fill="#262624"/>
<circle opacity="0.5" cx="259.223" cy="368.079" r="2.28889" transform="rotate(-17.877 259.223 368.079)" fill="#262624"/>
<circle opacity="0.5" cx="368.159" cy="272.267" r="2.28889" transform="rotate(-68.1586 368.159 272.267)" fill="#262624"/>
<circle opacity="0.5" cx="68.0038" cy="143.402" r="2.28889" transform="rotate(-63.3626 68.0038 143.402)" fill="#262624"/>
<circle opacity="0.5" cx="147.855" cy="65.7197" r="2.28889" transform="rotate(-20.6481 147.855 65.7197)" fill="#262624"/>
<circle opacity="0.5" cx="268.429" cy="364.383" r="2.28889" transform="rotate(-17.877 268.429 364.383)" fill="#262624"/>
<circle opacity="0.5" cx="371.197" cy="262.825" r="2.28889" transform="rotate(-68.1586 371.197 262.825)" fill="#262624"/>
<circle opacity="0.5" cx="71.8212" cy="134.247" r="2.28889" transform="rotate(-63.3626 71.8212 134.247)" fill="#262624"/>
<circle opacity="0.5" cx="156.869" cy="61.5835" r="2.28889" transform="rotate(-20.6481 156.869 61.5835)" fill="#262624"/>
<circle opacity="0.5" cx="277.634" cy="360.687" r="2.28889" transform="rotate(-17.877 277.634 360.687)" fill="#262624"/>
<circle opacity="0.5" cx="344.783" cy="275.163" r="2.28889" transform="rotate(-68.1586 344.783 275.163)" fill="#262624"/>
<circle opacity="0.5" cx="44.4696" cy="144.333" r="2.28889" transform="rotate(-63.3626 44.4696 144.333)" fill="#262624"/>
<circle opacity="0.5" cx="129.929" cy="50.4402" r="2.28889" transform="rotate(-20.6481 129.929 50.4402)" fill="#262624"/>
<circle opacity="0.5" cx="254.863" cy="358.32" r="2.28889" transform="rotate(-17.877 254.863 358.32)" fill="#262624"/>
<circle opacity="0.5" cx="347.822" cy="265.722" r="2.28889" transform="rotate(-68.1586 347.822 265.722)" fill="#262624"/>
<circle opacity="0.5" cx="48.289" cy="135.179" r="2.28889" transform="rotate(-63.3626 48.289 135.179)" fill="#262624"/>
<circle opacity="0.5" cx="138.945" cy="46.3035" r="2.28889" transform="rotate(-20.6481 138.945 46.3035)" fill="#262624"/>
<circle opacity="0.5" cx="264.069" cy="354.624" r="2.28889" transform="rotate(-17.877 264.069 354.624)" fill="#262624"/>
<circle opacity="0.5" cx="350.862" cy="256.28" r="2.28889" transform="rotate(-68.1586 350.862 256.28)" fill="#262624"/>
<circle opacity="0.5" cx="52.1034" cy="126.025" r="2.28889" transform="rotate(-63.3626 52.1034 126.025)" fill="#262624"/>
<circle opacity="0.5" cx="147.961" cy="42.167" r="2.28889" transform="rotate(-20.6481 147.961 42.167)" fill="#262624"/>
<circle opacity="0.5" cx="273.271" cy="350.928" r="2.28889" transform="rotate(-17.877 273.271 350.928)" fill="#262624"/>
<circle opacity="0.5" cx="354.952" cy="278.435" r="2.28889" transform="rotate(-68.1586 354.952 278.435)" fill="#262624"/>
<circle opacity="0.5" cx="54.329" cy="148.445" r="2.28889" transform="rotate(-63.3626 54.329 148.445)" fill="#262624"/>
<circle opacity="0.5" cx="134.386" cy="60.148" r="2.28889" transform="rotate(-20.6481 134.386 60.148)" fill="#262624"/>
<circle opacity="0.5" cx="254.919" cy="358.298" r="2.28889" transform="rotate(-17.877 254.919 358.298)" fill="#262624"/>
<circle opacity="0.5" cx="357.989" cy="268.994" r="2.28889" transform="rotate(-68.1586 357.989 268.994)" fill="#262624"/>
<circle opacity="0.5" cx="58.1454" cy="139.29" r="2.28889" transform="rotate(-63.3626 58.1454 139.29)" fill="#262624"/>
<circle opacity="0.5" cx="143.399" cy="56.0115" r="2.28889" transform="rotate(-20.6481 143.399 56.0115)" fill="#262624"/>
<circle opacity="0.5" cx="264.121" cy="354.602" r="2.28889" transform="rotate(-17.877 264.121 354.602)" fill="#262624"/>
<circle opacity="0.5" cx="361.03" cy="259.552" r="2.28889" transform="rotate(-68.1586 361.03 259.552)" fill="#262624"/>
<circle opacity="0.5" cx="61.9638" cy="130.136" r="2.28889" transform="rotate(-63.3626 61.9638 130.136)" fill="#262624"/>
<circle opacity="0.5" cx="152.416" cy="51.8755" r="2.28889" transform="rotate(-20.6481 152.416 51.8755)" fill="#262624"/>
<circle opacity="0.5" cx="273.326" cy="350.906" r="2.28889" transform="rotate(-17.877 273.326 350.906)" fill="#262624"/>
<path d="M205.695 103.767C205.695 103.936 205.831 104.072 206 104.072C206.169 104.072 206.305 103.936 206.305 103.767H206H205.695ZM206.305 67.1369C206.305 66.9684 206.169 66.8317 206 66.8317C205.831 66.8317 205.695 66.9684 205.695 67.1369H206H206.305ZM206 103.767H206.305V102.668H206H205.695V103.767H206ZM206 101.203H206.305V99.0052H206H205.695V101.203H206ZM206 97.54H206.305V95.3422H206H205.695V97.54H206ZM206 93.8769H206.305V91.6791H206H205.695V93.8769H206ZM206 90.2139H206.305V88.0161H206H205.695V90.2139H206ZM206 86.5509H206.305V84.3531H206H205.695V86.5509H206ZM206 82.8879H206.305V80.6901H206H205.695V82.8879H206ZM206 79.2249H206.305V77.0271H206H205.695V79.2249H206ZM206 75.5619H206.305V73.364H206H205.695V75.5619H206ZM206 71.8988H206.305V69.701H206H205.695V71.8988H206ZM206 68.2358H206.305V67.1369H206H205.695V68.2358H206ZM205.695 103.767C205.695 103.936 205.831 104.072 206 104.072C206.169 104.072 206.305 103.936 206.305 103.767H206H205.695ZM206.305 67.1369C206.305 66.9684 206.169 66.8317 206 66.8317C205.831 66.8317 205.695 66.9684 205.695 67.1369H206H206.305ZM206 103.767H206.305V102.668H206H205.695V103.767H206ZM206 101.203H206.305V99.0052H206H205.695V101.203H206ZM206 97.54H206.305V95.3422H206H205.695V97.54H206ZM206 93.8769H206.305V91.6791H206H205.695V93.8769H206ZM206 90.2139H206.305V88.0161H206H205.695V90.2139H206ZM206 86.5509H206.305V84.3531H206H205.695V86.5509H206ZM206 82.8879H206.305V80.6901H206H205.695V82.8879H206ZM206 79.2249H206.305V77.0271H206H205.695V79.2249H206ZM206 75.5619H206.305V73.364H206H205.695V75.5619H206ZM206 71.8988H206.305V69.701H206H205.695V71.8988H206ZM206 68.2358H206.305V67.1369H206H205.695V68.2358H206Z" fill="#73736E"/>
<path d="M205.695 344.859C205.695 345.028 205.831 345.165 206 345.165C206.169 345.165 206.305 345.028 206.305 344.859H206H205.695ZM206.305 308.229C206.305 308.061 206.169 307.924 206 307.924C205.831 307.924 205.695 308.061 205.695 308.229H206H206.305ZM206 344.859H206.305V343.76H206H205.695V344.859H206ZM206 342.295H206.305V340.097H206H205.695V342.295H206ZM206 338.632H206.305V336.434H206H205.695V338.632H206ZM206 334.969H206.305V332.771H206H205.695V334.969H206ZM206 331.306H206.305V329.108H206H205.695V331.306H206ZM206 327.643H206.305V325.445H206H205.695V327.643H206ZM206 323.98H206.305V321.782H206H205.695V323.98H206ZM206 320.317H206.305V318.119H206H205.695V320.317H206ZM206 316.654H206.305V314.456H206H205.695V316.654H206ZM206 312.991H206.305V310.793H206H205.695V312.991H206ZM206 309.328H206.305V308.229H206H205.695V309.328H206ZM205.695 344.859C205.695 345.028 205.831 345.165 206 345.165C206.169 345.165 206.305 345.028 206.305 344.859H206H205.695ZM206.305 308.229C206.305 308.061 206.169 307.924 206 307.924C205.831 307.924 205.695 308.061 205.695 308.229H206H206.305ZM206 344.859H206.305V343.76H206H205.695V344.859H206ZM206 342.295H206.305V340.097H206H205.695V342.295H206ZM206 338.632H206.305V336.434H206H205.695V338.632H206ZM206 334.969H206.305V332.771H206H205.695V334.969H206ZM206 331.306H206.305V329.108H206H205.695V331.306H206ZM206 327.643H206.305V325.445H206H205.695V327.643H206ZM206 323.98H206.305V321.782H206H205.695V323.98H206ZM206 320.317H206.305V318.119H206H205.695V320.317H206ZM206 316.654H206.305V314.456H206H205.695V316.654H206ZM206 312.991H206.305V310.793H206H205.695V312.991H206ZM206 309.328H206.305V308.229H206H205.695V309.328H206Z" fill="#73736E"/>
<path d="M105.079 303.437C104.957 303.553 104.952 303.746 105.067 303.869C105.183 303.991 105.376 303.997 105.499 303.881L105.289 303.659L105.079 303.437ZM133.728 277.177C133.851 277.061 133.856 276.868 133.74 276.746C133.625 276.623 133.431 276.618 133.309 276.734L133.519 276.955L133.728 277.177ZM105.289 303.659L105.499 303.881L106.346 303.08L106.136 302.858L105.926 302.636L105.079 303.437L105.289 303.659ZM107.265 301.79L107.475 302.012L109.169 300.409L108.959 300.188L108.749 299.966L107.055 301.568L107.265 301.79ZM110.088 299.12L110.298 299.341L111.992 297.739L111.782 297.517L111.572 297.296L109.878 298.898L110.088 299.12ZM112.911 296.449L113.121 296.671L114.815 295.069L114.605 294.847L114.395 294.625L112.701 296.227L112.911 296.449ZM115.734 293.779L115.944 294.001L117.638 292.398L117.428 292.177L117.218 291.955L115.524 293.557L115.734 293.779ZM118.557 291.108L118.767 291.33L120.46 289.728L120.251 289.506L120.041 289.285L118.347 290.887L118.557 291.108ZM121.38 288.438L121.59 288.66L123.283 287.058L123.074 286.836L122.864 286.614L121.17 288.216L121.38 288.438ZM124.203 285.768L124.413 285.989L126.106 284.387L125.897 284.165L125.687 283.944L123.993 285.546L124.203 285.768ZM127.026 283.097L127.236 283.319L128.929 281.717L128.72 281.495L128.51 281.273L126.816 282.876L127.026 283.097ZM129.849 280.427L130.059 280.649L131.752 279.046L131.543 278.825L131.333 278.603L129.639 280.205L129.849 280.427ZM132.672 277.757L132.882 277.978L133.728 277.177L133.519 276.955L133.309 276.734L132.462 277.535L132.672 277.757ZM105.079 303.437C104.957 303.553 104.952 303.746 105.067 303.869C105.183 303.991 105.376 303.997 105.499 303.881L105.289 303.659L105.079 303.437ZM133.728 277.177C133.851 277.061 133.856 276.868 133.74 276.746C133.625 276.623 133.431 276.618 133.309 276.734L133.519 276.955L133.728 277.177ZM105.289 303.659L105.499 303.881L106.346 303.08L106.136 302.858L105.926 302.636L105.079 303.437L105.289 303.659ZM107.265 301.79L107.475 302.012L109.169 300.409L108.959 300.188L108.749 299.966L107.055 301.568L107.265 301.79ZM110.088 299.12L110.298 299.341L111.992 297.739L111.782 297.517L111.572 297.296L109.878 298.898L110.088 299.12ZM112.911 296.449L113.121 296.671L114.815 295.069L114.605 294.847L114.395 294.625L112.701 296.227L112.911 296.449ZM115.734 293.779L115.944 294.001L117.638 292.398L117.428 292.177L117.218 291.955L115.524 293.557L115.734 293.779ZM118.557 291.108L118.767 291.33L120.46 289.728L120.251 289.506L120.041 289.285L118.347 290.887L118.557 291.108ZM121.38 288.438L121.59 288.66L123.283 287.058L123.074 286.836L122.864 286.614L121.17 288.216L121.38 288.438ZM124.203 285.768L124.413 285.989L126.106 284.387L125.897 284.165L125.687 283.944L123.993 285.546L124.203 285.768ZM127.026 283.097L127.236 283.319L128.929 281.717L128.72 281.495L128.51 281.273L126.816 282.876L127.026 283.097ZM129.849 280.427L130.059 280.649L131.752 279.046L131.543 278.825L131.333 278.603L129.639 280.205L129.849 280.427ZM132.672 277.757L132.882 277.978L133.728 277.177L133.519 276.955L133.309 276.734L132.462 277.535L132.672 277.757Z" fill="#73736E"/>
<path d="M110.085 107.365C109.968 107.244 109.775 107.241 109.654 107.359C109.533 107.476 109.53 107.669 109.647 107.79L109.866 107.578L110.085 107.365ZM134.825 133.731C134.942 133.852 135.136 133.855 135.257 133.737C135.377 133.62 135.38 133.427 135.263 133.306L135.044 133.518L134.825 133.731ZM109.866 107.578L109.647 107.79L110.486 108.655L110.705 108.442L110.924 108.23L110.085 107.365L109.866 107.578ZM111.824 109.595L111.605 109.808L113.284 111.537L113.503 111.325L113.722 111.112L112.043 109.383L111.824 109.595ZM114.622 112.478L114.403 112.69L116.082 114.419L116.301 114.207L116.52 113.994L114.841 112.265L114.622 112.478ZM117.42 115.36L117.201 115.572L118.879 117.302L119.098 117.089L119.317 116.877L117.639 115.147L117.42 115.36ZM120.217 118.242L119.998 118.455L121.677 120.184L121.896 119.972L122.115 119.759L120.436 118.03L120.217 118.242ZM123.015 121.124L122.796 121.337L124.474 123.066L124.693 122.854L124.912 122.641L123.234 120.912L123.015 121.124ZM125.812 124.007L125.593 124.219L127.272 125.949L127.491 125.736L127.71 125.524L126.031 123.794L125.812 124.007ZM128.61 126.889L128.391 127.102L130.069 128.831L130.288 128.618L130.507 128.406L128.829 126.677L128.61 126.889ZM131.407 129.771L131.188 129.984L132.867 131.713L133.086 131.501L133.305 131.288L131.626 129.559L131.407 129.771ZM134.205 132.654L133.986 132.866L134.825 133.731L135.044 133.518L135.263 133.306L134.424 132.441L134.205 132.654ZM110.085 107.365C109.968 107.244 109.775 107.241 109.654 107.359C109.533 107.476 109.53 107.669 109.647 107.79L109.866 107.578L110.085 107.365ZM134.825 133.731C134.942 133.852 135.136 133.855 135.257 133.737C135.377 133.62 135.38 133.427 135.263 133.306L135.044 133.518L134.825 133.731ZM109.866 107.578L109.647 107.79L110.486 108.655L110.705 108.442L110.924 108.23L110.085 107.365L109.866 107.578ZM111.824 109.595L111.605 109.808L113.284 111.537L113.503 111.325L113.722 111.112L112.043 109.383L111.824 109.595ZM114.622 112.478L114.403 112.69L116.082 114.419L116.301 114.207L116.52 113.994L114.841 112.265L114.622 112.478ZM117.42 115.36L117.201 115.572L118.879 117.302L119.098 117.089L119.317 116.877L117.639 115.147L117.42 115.36ZM120.217 118.242L119.998 118.455L121.677 120.184L121.896 119.972L122.115 119.759L120.436 118.03L120.217 118.242ZM123.015 121.124L122.796 121.337L124.474 123.066L124.693 122.854L124.912 122.641L123.234 120.912L123.015 121.124ZM125.812 124.007L125.593 124.219L127.272 125.949L127.491 125.736L127.71 125.524L126.031 123.794L125.812 124.007ZM128.61 126.889L128.391 127.102L130.069 128.831L130.288 128.618L130.507 128.406L128.829 126.677L128.61 126.889ZM131.407 129.771L131.188 129.984L132.867 131.713L133.086 131.501L133.305 131.288L131.626 129.559L131.407 129.771ZM134.205 132.654L133.986 132.866L134.825 133.731L135.044 133.518L135.263 133.306L134.424 132.441L134.205 132.654Z" fill="#73736E"/>
<path d="M304.199 306.157C304.314 306.28 304.507 306.286 304.63 306.171C304.753 306.055 304.759 305.862 304.643 305.739L304.421 305.948L304.199 306.157ZM278.548 277.987C278.433 277.865 278.239 277.859 278.117 277.974C277.994 278.09 277.988 278.283 278.103 278.405L278.326 278.196L278.548 277.987ZM304.421 305.948L304.643 305.739L303.86 304.907L303.638 305.116L303.416 305.325L304.199 306.157L304.421 305.948ZM302.594 304.006L302.817 303.797L301.251 302.131L301.029 302.341L300.806 302.55L302.372 304.215L302.594 304.006ZM299.985 301.23L300.207 301.021L298.641 299.356L298.419 299.565L298.197 299.774L299.762 301.439L299.985 301.23ZM297.375 298.455L297.598 298.246L296.032 296.581L295.809 296.79L295.587 296.999L297.153 298.664L297.375 298.455ZM294.766 295.68L294.988 295.471L293.422 293.806L293.2 294.015L292.978 294.224L294.543 295.889L294.766 295.68ZM292.156 292.905L292.379 292.696L290.813 291.031L290.59 291.24L290.368 291.449L291.934 293.114L292.156 292.905ZM289.547 290.13L289.769 289.921L288.203 288.256L287.981 288.465L287.759 288.674L289.324 290.339L289.547 290.13ZM286.937 287.354L287.159 287.145L285.594 285.48L285.371 285.689L285.149 285.898L286.715 287.564L286.937 287.354ZM284.328 284.579L284.55 284.37L282.984 282.705L282.762 282.914L282.54 283.123L284.105 284.788L284.328 284.579ZM281.718 281.804L281.94 281.595L280.375 279.93L280.152 280.139L279.93 280.348L281.496 282.013L281.718 281.804ZM279.109 279.029L279.331 278.82L278.548 277.987L278.326 278.196L278.103 278.405L278.886 279.238L279.109 279.029ZM304.199 306.157C304.314 306.28 304.507 306.286 304.63 306.171C304.753 306.055 304.759 305.862 304.643 305.739L304.421 305.948L304.199 306.157ZM278.548 277.987C278.433 277.865 278.239 277.859 278.117 277.974C277.994 278.09 277.988 278.283 278.103 278.405L278.326 278.196L278.548 277.987ZM304.421 305.948L304.643 305.739L303.86 304.907L303.638 305.116L303.416 305.325L304.199 306.157L304.421 305.948ZM302.594 304.006L302.817 303.797L301.251 302.131L301.029 302.341L300.806 302.55L302.372 304.215L302.594 304.006ZM299.985 301.23L300.207 301.021L298.641 299.356L298.419 299.565L298.197 299.774L299.762 301.439L299.985 301.23ZM297.375 298.455L297.598 298.246L296.032 296.581L295.809 296.79L295.587 296.999L297.153 298.664L297.375 298.455ZM294.766 295.68L294.988 295.471L293.422 293.806L293.2 294.015L292.978 294.224L294.543 295.889L294.766 295.68ZM292.156 292.905L292.379 292.696L290.813 291.031L290.59 291.24L290.368 291.449L291.934 293.114L292.156 292.905ZM289.547 290.13L289.769 289.921L288.203 288.256L287.981 288.465L287.759 288.674L289.324 290.339L289.547 290.13ZM286.937 287.354L287.159 287.145L285.594 285.48L285.371 285.689L285.149 285.898L286.715 287.564L286.937 287.354ZM284.328 284.579L284.55 284.37L282.984 282.705L282.762 282.914L282.54 283.123L284.105 284.788L284.328 284.579ZM281.718 281.804L281.94 281.595L280.375 279.93L280.152 280.139L279.93 280.348L281.496 282.013L281.718 281.804ZM279.109 279.029L279.331 278.82L278.548 277.987L278.326 278.196L278.103 278.405L278.886 279.238L279.109 279.029Z" fill="#73736E"/>
<path d="M278.27 134.062C278.149 134.18 278.146 134.373 278.263 134.494C278.381 134.615 278.574 134.618 278.695 134.5L278.482 134.281L278.27 134.062ZM304.636 109.323C304.757 109.205 304.76 109.012 304.642 108.891C304.525 108.77 304.332 108.767 304.211 108.885L304.423 109.104L304.636 109.323ZM278.482 134.281L278.695 134.5L279.56 133.661L279.347 133.442L279.135 133.223L278.27 134.062L278.482 134.281ZM280.5 132.323L280.713 132.542L282.442 130.864L282.229 130.645L282.017 130.426L280.287 132.104L280.5 132.323ZM283.382 129.526L283.595 129.745L285.324 128.066L285.112 127.847L284.899 127.628L283.17 129.307L283.382 129.526ZM286.265 126.728L286.477 126.947L288.207 125.269L287.994 125.05L287.781 124.831L286.052 126.509L286.265 126.728ZM289.147 123.931L289.36 124.15L291.089 122.471L290.876 122.252L290.664 122.033L288.934 123.712L289.147 123.931ZM292.029 121.133L292.242 121.352L293.971 119.674L293.759 119.455L293.546 119.236L291.817 120.914L292.029 121.133ZM294.912 118.336L295.124 118.555L296.853 116.876L296.641 116.657L296.428 116.438L294.699 118.117L294.912 118.336ZM297.794 115.538L298.006 115.757L299.736 114.079L299.523 113.86L299.311 113.641L297.581 115.319L297.794 115.538ZM300.676 112.741L300.889 112.96L302.618 111.281L302.406 111.062L302.193 110.843L300.464 112.522L300.676 112.741ZM303.558 109.943L303.771 110.162L304.636 109.323L304.423 109.104L304.211 108.885L303.346 109.724L303.558 109.943ZM278.27 134.062C278.149 134.18 278.146 134.373 278.263 134.494C278.381 134.615 278.574 134.618 278.695 134.5L278.482 134.281L278.27 134.062ZM304.636 109.323C304.757 109.205 304.76 109.012 304.642 108.891C304.525 108.77 304.332 108.767 304.211 108.885L304.423 109.104L304.636 109.323ZM278.482 134.281L278.695 134.5L279.56 133.661L279.347 133.442L279.135 133.223L278.27 134.062L278.482 134.281ZM280.5 132.323L280.713 132.542L282.442 130.864L282.229 130.645L282.017 130.426L280.287 132.104L280.5 132.323ZM283.382 129.526L283.595 129.745L285.324 128.066L285.112 127.847L284.899 127.628L283.17 129.307L283.382 129.526ZM286.265 126.728L286.477 126.947L288.207 125.269L287.994 125.05L287.781 124.831L286.052 126.509L286.265 126.728ZM289.147 123.931L289.36 124.15L291.089 122.471L290.876 122.252L290.664 122.033L288.934 123.712L289.147 123.931ZM292.029 121.133L292.242 121.352L293.971 119.674L293.759 119.455L293.546 119.236L291.817 120.914L292.029 121.133ZM294.912 118.336L295.124 118.555L296.853 116.876L296.641 116.657L296.428 116.438L294.699 118.117L294.912 118.336ZM297.794 115.538L298.006 115.757L299.736 114.079L299.523 113.86L299.311 113.641L297.581 115.319L297.794 115.538ZM300.676 112.741L300.889 112.96L302.618 111.281L302.406 111.062L302.193 110.843L300.464 112.522L300.676 112.741ZM303.558 109.943L303.771 110.162L304.636 109.323L304.423 109.104L304.211 108.885L303.346 109.724L303.558 109.943Z" fill="#73736E"/>
<path d="M346.386 204.779C346.554 204.779 346.691 204.642 346.691 204.474C346.691 204.305 346.554 204.169 346.386 204.169L346.386 204.474L346.386 204.779ZM308.238 204.169C308.069 204.169 307.932 204.305 307.932 204.474C307.932 204.642 308.069 204.779 308.238 204.779L308.238 204.474L308.238 204.169ZM346.386 204.474L346.386 204.169L345.241 204.169L345.241 204.474L345.241 204.779L346.386 204.779L346.386 204.474ZM343.715 204.474L343.715 204.169L341.426 204.169L341.426 204.474L341.426 204.779L343.715 204.779L343.715 204.474ZM339.901 204.474L339.901 204.169L337.612 204.169L337.612 204.474L337.612 204.779L339.901 204.779L339.901 204.474ZM336.086 204.474L336.086 204.169L333.797 204.169L333.797 204.474L333.797 204.779L336.086 204.779L336.086 204.474ZM332.271 204.474L332.271 204.169L329.982 204.169L329.982 204.474L329.982 204.779L332.271 204.779L332.271 204.474ZM328.456 204.474L328.456 204.169L326.167 204.169L326.167 204.474L326.167 204.779L328.456 204.779L328.456 204.474ZM324.641 204.474L324.641 204.169L322.352 204.169L322.352 204.474L322.352 204.779L324.641 204.779L324.641 204.474ZM320.826 204.474L320.826 204.169L318.538 204.169L318.538 204.474L318.538 204.779L320.826 204.779L320.826 204.474ZM317.012 204.474L317.012 204.169L314.723 204.169L314.723 204.474L314.723 204.779L317.012 204.779L317.012 204.474ZM313.197 204.474L313.197 204.169L310.908 204.169L310.908 204.474L310.908 204.779L313.197 204.779L313.197 204.474ZM309.382 204.474L309.382 204.169L308.238 204.169L308.238 204.474L308.238 204.779L309.382 204.779L309.382 204.474ZM346.386 204.779C346.554 204.779 346.691 204.642 346.691 204.474C346.691 204.305 346.554 204.169 346.386 204.169L346.386 204.474L346.386 204.779ZM308.238 204.169C308.069 204.169 307.932 204.305 307.932 204.474C307.932 204.642 308.069 204.779 308.238 204.779L308.238 204.474L308.238 204.169ZM346.386 204.474L346.386 204.169L345.241 204.169L345.241 204.474L345.241 204.779L346.386 204.779L346.386 204.474ZM343.715 204.474L343.715 204.169L341.426 204.169L341.426 204.474L341.426 204.779L343.715 204.779L343.715 204.474ZM339.901 204.474L339.901 204.169L337.612 204.169L337.612 204.474L337.612 204.779L339.901 204.779L339.901 204.474ZM336.086 204.474L336.086 204.169L333.797 204.169L333.797 204.474L333.797 204.779L336.086 204.779L336.086 204.474ZM332.271 204.474L332.271 204.169L329.982 204.169L329.982 204.474L329.982 204.779L332.271 204.779L332.271 204.474ZM328.456 204.474L328.456 204.169L326.167 204.169L326.167 204.474L326.167 204.779L328.456 204.779L328.456 204.474ZM324.641 204.474L324.641 204.169L322.352 204.169L322.352 204.474L322.352 204.779L324.641 204.779L324.641 204.474ZM320.826 204.474L320.826 204.169L318.538 204.169L318.538 204.474L318.538 204.779L320.826 204.779L320.826 204.474ZM317.012 204.474L317.012 204.169L314.723 204.169L314.723 204.474L314.723 204.779L317.012 204.779L317.012 204.474ZM313.197 204.474L313.197 204.169L310.908 204.169L310.908 204.474L310.908 204.779L313.197 204.779L313.197 204.474ZM309.382 204.474L309.382 204.169L308.238 204.169L308.238 204.474L308.238 204.779L309.382 204.779L309.382 204.474Z" fill="#73736E"/>
<path d="M103.765 204.779C103.933 204.779 104.07 204.642 104.07 204.474C104.07 204.305 103.933 204.169 103.765 204.169L103.765 204.474L103.765 204.779ZM65.6165 204.169C65.4479 204.169 65.3113 204.305 65.3113 204.474C65.3113 204.642 65.4479 204.779 65.6165 204.779L65.6165 204.474L65.6165 204.169ZM103.765 204.474L103.765 204.169L102.62 204.169L102.62 204.474L102.62 204.779L103.765 204.779L103.765 204.474ZM101.094 204.474L101.094 204.169L98.8054 204.169L98.8054 204.474L98.8054 204.779L101.094 204.779L101.094 204.474ZM97.2795 204.474L97.2795 204.169L94.9906 204.169L94.9906 204.474L94.9906 204.779L97.2795 204.779L97.2795 204.474ZM93.4646 204.474L93.4646 204.169L91.1758 204.169L91.1758 204.474L91.1758 204.779L93.4646 204.779L93.4646 204.474ZM89.6498 204.474L89.6498 204.169L87.3609 204.169L87.3609 204.474L87.3609 204.779L89.6498 204.779L89.6498 204.474ZM85.835 204.474L85.835 204.169L83.5461 204.169L83.5461 204.474L83.5461 204.779L85.835 204.779L85.835 204.474ZM82.0202 204.474L82.0202 204.169L79.7313 204.169L79.7313 204.474L79.7313 204.779L82.0202 204.779L82.0202 204.474ZM78.2054 204.474L78.2054 204.169L75.9165 204.169L75.9165 204.474L75.9165 204.779L78.2054 204.779L78.2054 204.474ZM74.3906 204.474L74.3906 204.169L72.1017 204.169L72.1017 204.474L72.1017 204.779L74.3906 204.779L74.3906 204.474ZM70.5758 204.474L70.5758 204.169L68.2869 204.169L68.2869 204.474L68.2869 204.779L70.5758 204.779L70.5758 204.474ZM66.7609 204.474L66.7609 204.169L65.6165 204.169L65.6165 204.474L65.6165 204.779L66.7609 204.779L66.7609 204.474ZM103.765 204.779C103.933 204.779 104.07 204.642 104.07 204.474C104.07 204.305 103.933 204.169 103.765 204.169L103.765 204.474L103.765 204.779ZM65.6165 204.169C65.4479 204.169 65.3113 204.305 65.3113 204.474C65.3113 204.642 65.4479 204.779 65.6165 204.779L65.6165 204.474L65.6165 204.169ZM103.765 204.474L103.765 204.169L102.62 204.169L102.62 204.474L102.62 204.779L103.765 204.779L103.765 204.474ZM101.094 204.474L101.094 204.169L98.8054 204.169L98.8054 204.474L98.8054 204.779L101.094 204.779L101.094 204.474ZM97.2795 204.474L97.2795 204.169L94.9906 204.169L94.9906 204.474L94.9906 204.779L97.2795 204.779L97.2795 204.474ZM93.4646 204.474L93.4646 204.169L91.1758 204.169L91.1758 204.474L91.1758 204.779L93.4646 204.779L93.4646 204.474ZM89.6498 204.474L89.6498 204.169L87.3609 204.169L87.3609 204.474L87.3609 204.779L89.6498 204.779L89.6498 204.474ZM85.835 204.474L85.835 204.169L83.5461 204.169L83.5461 204.474L83.5461 204.779L85.835 204.779L85.835 204.474ZM82.0202 204.474L82.0202 204.169L79.7313 204.169L79.7313 204.474L79.7313 204.779L82.0202 204.779L82.0202 204.474ZM78.2054 204.474L78.2054 204.169L75.9165 204.169L75.9165 204.474L75.9165 204.779L78.2054 204.779L78.2054 204.474ZM74.3906 204.474L74.3906 204.169L72.1017 204.169L72.1017 204.474L72.1017 204.779L74.3906 204.779L74.3906 204.474ZM70.5758 204.474L70.5758 204.169L68.2869 204.169L68.2869 204.474L68.2869 204.779L70.5758 204.779L70.5758 204.474ZM66.7609 204.474L66.7609 204.169L65.6165 204.169L65.6165 204.474L65.6165 204.779L66.7609 204.779L66.7609 204.474Z" fill="#73736E"/>
<defs>
<clipPath id="clip0_2041_804">
<rect x="80.1104" y="331.889" width="251.778" height="251.778" rx="125.889" transform="rotate(-90 80.1104 331.889)" fill="white"/>
</clipPath>
<clipPath id="clip1_2041_804">
<rect x="171.473" y="282.296" width="48.8296" height="48.8296" rx="24.4148" transform="rotate(-45 171.473 282.296)" fill="white"/>
</clipPath>
<clipPath id="clip2_2041_804">
<rect x="322.746" y="56.459" width="48.8296" height="48.8296" rx="24.4148" transform="rotate(45 322.746 56.459)" fill="white"/>
</clipPath>
<clipPath id="clip3_2041_804">
<rect x="86.9668" y="286.546" width="48.8296" height="48.8296" rx="24.4148" transform="rotate(45 86.9668 286.546)" fill="white"/>
</clipPath>
<clipPath id="clip4_2041_804">
<rect x="321.074" y="290.507" width="48.8296" height="48.8296" rx="24.4148" transform="rotate(45 321.074 290.507)" fill="white"/>
</clipPath>
<clipPath id="clip5_2041_804">
<rect x="90.9258" y="56.459" width="48.8296" height="48.8296" rx="24.4148" transform="rotate(45 90.9258 56.459)" fill="white"/>
</clipPath>
</defs>
</svg>
