<svg width="285" height="502" viewBox="0 0 285 502" fill="none" xmlns="http://www.w3.org/2000/svg">
<g opacity="0.5">
<path d="M280.078 75.8817C285.434 78.9775 285.364 84.0211 279.869 87.1517L150.852 160.198C144.67 163.3 137.386 163.3 131.204 160.198L4.51662 87.1517C-0.873592 84.0211 -0.80404 79.0122 4.51662 75.8817L133.534 2.83541C139.726 -0.278469 147.025 -0.278469 153.217 2.83541L280.078 75.8817Z" stroke="#3B5A86"/>
<path d="M280.078 101.906C285.434 105.002 285.364 110.046 279.869 113.176L150.852 186.223C144.67 189.325 137.386 189.325 131.204 186.223L4.51662 113.176C-0.873592 110.046 -0.80404 105.037 4.51662 101.906L133.534 28.8601C139.726 25.7462 147.025 25.7462 153.217 28.8601L280.078 101.906Z" stroke="#3B5A86"/>
<path d="M280.078 127.931C285.434 131.027 285.364 136.07 279.869 139.201L150.852 212.247C144.67 215.35 137.386 215.35 131.204 212.247L4.51662 139.201C-0.873592 136.07 -0.80404 131.062 4.51662 127.931L133.534 54.8847C139.726 51.7708 147.025 51.7708 153.217 54.8847L280.078 127.931Z" stroke="#3B5A86"/>
<path d="M280.078 153.956C285.434 157.051 285.364 162.095 279.869 165.226L150.852 238.272C144.67 241.374 137.386 241.374 131.204 238.272L4.51662 165.226C-0.873592 162.095 -0.80404 157.086 4.51662 153.956L133.534 80.9094C139.726 77.7955 147.025 77.7955 153.217 80.9094L280.078 153.956Z" stroke="#3B5A86"/>
<path d="M280.078 179.98C285.434 183.076 285.364 188.12 279.869 191.25L150.852 264.297C144.67 267.399 137.386 267.399 131.204 264.297L4.51662 191.25C-0.873592 188.12 -0.80404 183.111 4.51662 179.98L133.534 106.934C139.726 103.82 147.025 103.82 153.217 106.934L280.078 179.98Z" stroke="#3B5A86"/>
<path d="M280.078 206.005C285.434 209.101 285.364 214.144 279.869 217.275L150.852 290.321C144.67 293.424 137.386 293.424 131.204 290.321L4.51662 217.275C-0.873592 214.144 -0.80404 209.136 4.51662 206.005L133.534 132.959C139.726 129.845 147.025 129.845 153.217 132.959L280.078 206.005Z" stroke="#3B5A86"/>
<path d="M280.078 232.03C285.434 235.125 285.364 240.169 279.869 243.3L150.852 316.346C144.67 319.448 137.386 319.448 131.204 316.346L4.51662 243.3C-0.873592 240.169 -0.80404 235.16 4.51662 232.03L133.534 158.983C139.726 155.869 147.025 155.869 153.217 158.983L280.078 232.03Z" stroke="#3B5A86"/>
<path d="M280.078 258.054C285.434 261.15 285.364 266.194 279.869 269.324L150.852 342.371C144.67 345.473 137.386 345.473 131.204 342.371L4.51662 269.324C-0.873592 266.194 -0.80404 261.185 4.51662 258.054L133.534 185.008C139.726 181.894 147.025 181.894 153.217 185.008L280.078 258.054Z" stroke="#3B5A86"/>
<path d="M280.078 284.079C285.434 287.175 285.364 292.218 279.869 295.349L150.852 368.395C144.67 371.497 137.386 371.497 131.204 368.395L4.51662 295.349C-0.873592 292.218 -0.80404 287.21 4.51662 284.079L133.534 211.033C139.726 207.919 147.025 207.919 153.217 211.033L280.078 284.079Z" stroke="#3B5A86"/>
<path d="M280.078 310.104C285.434 313.199 285.364 318.243 279.869 321.374L150.852 394.42C144.67 397.522 137.386 397.522 131.204 394.42L4.51662 321.374C-0.873592 318.243 -0.80404 313.234 4.51662 310.104L133.534 237.057C139.726 233.943 147.025 233.943 153.217 237.057L280.078 310.104Z" stroke="#3B5A86"/>
<path d="M280.078 336.128C285.434 339.224 285.364 344.268 279.869 347.398L150.852 420.445C144.67 423.547 137.386 423.547 131.204 420.445L4.51662 347.398C-0.873592 344.268 -0.80404 339.259 4.51662 336.128L133.534 263.082C139.726 259.968 147.025 259.968 153.217 263.082L280.078 336.128Z" stroke="#3B5A86"/>
<path d="M280.078 362.153C285.434 365.249 285.364 370.292 279.869 373.423L150.852 446.469C144.67 449.571 137.386 449.571 131.204 446.469L4.51662 373.423C-0.873592 370.292 -0.80404 365.283 4.51662 362.153L133.534 289.107C139.726 285.993 147.025 285.993 153.217 289.107L280.078 362.153Z" stroke="#3B5A86"/>
<path d="M280.078 388.178C285.434 391.273 285.364 396.317 279.869 399.448L150.852 472.494C144.67 475.596 137.386 475.596 131.204 472.494L4.51662 399.448C-0.873592 396.317 -0.80404 391.308 4.51662 388.178L133.534 315.131C139.726 312.017 147.025 312.017 153.217 315.131L280.078 388.178Z" stroke="#3B5A86"/>
<path d="M280.078 414.202C285.434 417.298 285.364 422.342 279.869 425.472L150.852 498.519C144.67 501.621 137.386 501.621 131.204 498.519L4.51662 425.472C-0.873592 422.342 -0.80404 417.333 4.51662 414.202L133.534 341.156C139.726 338.042 147.025 338.042 153.217 341.156L280.078 414.202Z" stroke="#3B5A86"/>
</g>
</svg>
