<svg width="24" height="24" viewBox="0 0 24 24" fill="none" xmlns="http://www.w3.org/2000/svg">
<path d="M7.97443 4.05193L2.91662 12.0001L7.97912 19.9482C8.05912 20.074 8.08589 20.2265 8.05355 20.372C8.0212 20.5176 7.93239 20.6443 7.80662 20.7244C7.68079 20.8044 7.52835 20.8312 7.38279 20.7989C7.23723 20.7665 7.11047 20.6777 7.03037 20.5519L1.78037 12.3019C1.72298 12.2117 1.6925 12.107 1.6925 12.0001C1.6925 11.8931 1.72298 11.7884 1.78037 11.6982L7.03037 3.44818C7.11242 3.32685 7.23856 3.24231 7.38197 3.21253C7.52538 3.18276 7.67475 3.21009 7.79832 3.28873C7.92189 3.36736 8.00991 3.49109 8.04367 3.63362C8.07744 3.77614 8.05428 3.92621 7.97912 4.05193H7.97443ZM22.2244 11.6982L16.9744 3.44818C16.9359 3.38364 16.8847 3.3275 16.8241 3.28306C16.7634 3.23862 16.6945 3.2068 16.6213 3.18947C16.5481 3.17213 16.4722 3.16964 16.3981 3.18215C16.324 3.19465 16.2531 3.22189 16.1896 3.26226C16.1262 3.30262 16.0715 3.3553 16.0288 3.41717C15.9861 3.47904 15.9562 3.54884 15.9409 3.62246C15.9256 3.69608 15.9252 3.77202 15.9398 3.84578C15.9544 3.91955 15.9836 3.98964 16.0257 4.05193L21.0835 12.0001L16.0257 19.9482C15.9457 20.074 15.9189 20.2265 15.9513 20.372C15.9836 20.5176 16.0724 20.6443 16.1982 20.7244C16.324 20.8044 16.4765 20.8312 16.622 20.7989C16.7676 20.7665 16.8943 20.6777 16.9744 20.5519L22.2244 12.3019C22.2818 12.2117 22.3123 12.107 22.3123 12.0001C22.3123 11.8931 22.2818 11.7884 22.2244 11.6982Z" fill="#0B0B0A"/>
</svg>
