<svg width="24" height="24" viewBox="0 0 24 24" fill="none" xmlns="http://www.w3.org/2000/svg">
<path d="M23.0626 11.6251C23.0613 10.6472 22.7775 9.69038 22.2453 8.86992C21.713 8.04946 20.9551 7.40026 20.0626 7.00043V6.75012C20.0616 5.79853 19.746 4.87397 19.1648 4.12048C18.5836 3.367 17.7695 2.8269 16.8493 2.58435C15.9291 2.34179 14.9546 2.41039 14.0775 2.77946C13.2004 3.14852 12.47 3.79734 12.0001 4.62481C11.5301 3.79734 10.7997 3.14852 9.92263 2.77946C9.04552 2.41039 8.07097 2.34179 7.15081 2.58435C6.23065 2.8269 5.41655 3.367 4.83536 4.12048C4.25416 4.87397 3.9385 5.79853 3.93756 6.75012V7.00043C3.04435 7.39892 2.2857 8.0476 1.75332 8.86807C1.22094 9.68854 0.937622 10.6457 0.937622 11.6237C0.937622 12.6018 1.22094 13.5589 1.75332 14.3794C2.2857 15.1998 3.04435 15.8485 3.93756 16.247V16.5001C3.9385 17.4517 4.25416 18.3763 4.83536 19.1298C5.41655 19.8832 6.23065 20.4233 7.15081 20.6659C8.07097 20.9085 9.04552 20.8399 9.92263 20.4708C10.7997 20.1017 11.5301 19.4529 12.0001 18.6254C12.47 19.4529 13.2004 20.1017 14.0775 20.4708C14.9546 20.8399 15.9291 20.9085 16.8493 20.6659C17.7695 20.4233 18.5836 19.8832 19.1648 19.1298C19.746 18.3763 20.0616 17.4517 20.0626 16.5001V16.247C20.9551 15.8479 21.7131 15.1993 22.2454 14.3793C22.7777 13.5592 23.0615 12.6028 23.0626 11.6251ZM8.25006 19.6876C7.42162 19.688 6.62557 19.3659 6.03057 18.7894C5.43558 18.213 5.08838 17.4275 5.06256 16.5995C5.37162 16.6581 5.68549 16.6876 6.00006 16.6876H6.75006C6.89924 16.6876 7.04231 16.6284 7.1478 16.5229C7.25329 16.4174 7.31256 16.2743 7.31256 16.1251C7.31256 15.9759 7.25329 15.8329 7.1478 15.7274C7.04231 15.6219 6.89924 15.5626 6.75006 15.5626H6.00006C5.07065 15.5634 4.17094 15.2353 3.46012 14.6366C2.7493 14.0378 2.27319 13.2069 2.11605 12.2909C1.95891 11.3748 2.13086 10.4328 2.60148 9.63132C3.07209 8.82987 3.81104 8.22073 4.68756 7.91168C4.79727 7.87289 4.89226 7.80103 4.95942 7.70599C5.02658 7.61096 5.06262 7.49743 5.06256 7.38106V6.75012C5.06256 5.90474 5.39838 5.09399 5.99615 4.49622C6.59393 3.89845 7.40468 3.56262 8.25006 3.56262C9.09543 3.56262 9.90619 3.89845 10.504 4.49622C11.1017 5.09399 11.4376 5.90474 11.4376 6.75012V13.5986C11.0341 13.154 10.5421 12.7988 9.99311 12.5558C9.44414 12.3128 8.8504 12.1874 8.25006 12.1876C8.10087 12.1876 7.9578 12.2469 7.85231 12.3524C7.74682 12.4579 7.68756 12.6009 7.68756 12.7501C7.68756 12.8993 7.74682 13.0424 7.85231 13.1479C7.9578 13.2534 8.10087 13.3126 8.25006 13.3126C9.09543 13.3126 9.90619 13.6484 10.504 14.2462C11.1017 14.844 11.4376 15.6547 11.4376 16.5001C11.4376 17.3455 11.1017 18.1563 10.504 18.754C9.90619 19.3518 9.09543 19.6876 8.25006 19.6876ZM18.0001 15.5626H17.2501C17.1009 15.5626 16.9578 15.6219 16.8523 15.7274C16.7468 15.8329 16.6876 15.9759 16.6876 16.1251C16.6876 16.2743 16.7468 16.4174 16.8523 16.5229C16.9578 16.6284 17.1009 16.6876 17.2501 16.6876H18.0001C18.3146 16.6876 18.6285 16.6581 18.9376 16.5995C18.918 17.2253 18.7146 17.8315 18.3527 18.3425C17.9908 18.8534 17.4865 19.2465 16.9026 19.4726C16.3187 19.6987 15.6811 19.7478 15.0695 19.6138C14.4579 19.4798 13.8993 19.1687 13.4634 18.7192C13.0275 18.2697 12.7336 17.7018 12.6185 17.0863C12.5033 16.4709 12.572 15.8351 12.8159 15.2585C13.0598 14.6818 13.4681 14.1897 13.9899 13.8437C14.5118 13.4976 15.1239 13.3129 15.7501 13.3126C15.8992 13.3126 16.0423 13.2534 16.1478 13.1479C16.2533 13.0424 16.3126 12.8993 16.3126 12.7501C16.3126 12.6009 16.2533 12.4579 16.1478 12.3524C16.0423 12.2469 15.8992 12.1876 15.7501 12.1876C15.1497 12.1874 14.556 12.3128 14.007 12.5558C13.458 12.7988 12.966 13.154 12.5626 13.5986V6.75012C12.5626 5.90474 12.8984 5.09399 13.4962 4.49622C14.0939 3.89845 14.9047 3.56262 15.7501 3.56262C16.5954 3.56262 17.4062 3.89845 18.004 4.49622C18.6017 5.09399 18.9376 5.90474 18.9376 6.75012V7.38106C18.9375 7.49743 18.9735 7.61096 19.0407 7.70599C19.1079 7.80103 19.2028 7.87289 19.3126 7.91168C20.1891 8.22073 20.928 8.82987 21.3986 9.63132C21.8693 10.4328 22.0412 11.3748 21.8841 12.2909C21.7269 13.2069 21.2508 14.0378 20.54 14.6366C19.8292 15.2353 18.9295 15.5634 18.0001 15.5626ZM19.3126 10.5001C19.3126 10.6493 19.2533 10.7924 19.1478 10.8979C19.0423 11.0034 18.8992 11.0626 18.7501 11.0626H18.3751C17.5297 11.0626 16.7189 10.7268 16.1212 10.129C15.5234 9.53125 15.1876 8.7205 15.1876 7.87512V7.50012C15.1876 7.35094 15.2468 7.20786 15.3523 7.10238C15.4578 6.99689 15.6009 6.93762 15.7501 6.93762C15.8992 6.93762 16.0423 6.99689 16.1478 7.10238C16.2533 7.20786 16.3126 7.35094 16.3126 7.50012V7.87512C16.3126 8.42213 16.5299 8.94674 16.9166 9.33353C17.3034 9.72032 17.828 9.93762 18.3751 9.93762H18.7501C18.8992 9.93762 19.0423 9.99689 19.1478 10.1024C19.2533 10.2079 19.3126 10.3509 19.3126 10.5001ZM5.62506 11.0626H5.25006C5.10087 11.0626 4.9578 11.0034 4.85231 10.8979C4.74682 10.7924 4.68756 10.6493 4.68756 10.5001C4.68756 10.3509 4.74682 10.2079 4.85231 10.1024C4.9578 9.99689 5.10087 9.93762 5.25006 9.93762H5.62506C6.17207 9.93762 6.69667 9.72032 7.08346 9.33353C7.47026 8.94674 7.68756 8.42213 7.68756 7.87512V7.50012C7.68756 7.35094 7.74682 7.20786 7.85231 7.10238C7.9578 6.99689 8.10087 6.93762 8.25006 6.93762C8.39924 6.93762 8.54231 6.99689 8.6478 7.10238C8.75329 7.20786 8.81256 7.35094 8.81256 7.50012V7.87512C8.81256 8.7205 8.47673 9.53125 7.87896 10.129C7.28119 10.7268 6.47043 11.0626 5.62506 11.0626Z" fill="#0B0B0A"/>
</svg>
