<svg width="24" height="24" viewBox="0 0 24 24" fill="none" xmlns="http://www.w3.org/2000/svg">
<path d="M21.556 17.4919C22.0788 16.4351 22.3383 15.2675 22.3124 14.0886C22.2864 12.9098 21.9758 11.7547 21.407 10.7219C20.8382 9.68902 20.028 8.80904 19.0456 8.15696C18.0632 7.50488 16.9377 7.10003 15.765 6.97694C15.3926 6.06844 14.841 5.24426 14.1431 4.55354C13.4453 3.86282 12.6155 3.31972 11.7032 2.95662C10.7909 2.59351 9.81489 2.41785 8.83326 2.44011C7.85164 2.46237 6.88455 2.68209 5.98967 3.08616C5.0948 3.49024 4.29046 4.0704 3.62464 4.79204C2.95882 5.51368 2.44514 6.36201 2.11426 7.28646C1.78337 8.2109 1.64205 9.19252 1.69871 10.1728C1.75538 11.153 2.00888 12.1118 2.44408 12.9919L1.7419 15.3751C1.67418 15.6019 1.66906 15.8428 1.72708 16.0723C1.7851 16.3017 1.90409 16.5113 2.07146 16.6786C2.23884 16.846 2.44836 16.965 2.67784 17.023C2.90732 17.081 3.14821 17.0759 3.37502 17.0082L5.7619 16.306C6.53777 16.6889 7.37545 16.9311 8.23596 17.0213C8.61622 17.9504 9.18372 18.7913 9.90311 19.4915C10.6225 20.1917 11.4784 20.7363 12.4174 21.0914C13.3564 21.4464 14.3585 21.6043 15.3612 21.5552C16.3639 21.5061 17.3458 21.2511 18.2456 20.806L20.625 21.5082C20.8518 21.5759 21.0927 21.581 21.3222 21.523C21.5517 21.465 21.7612 21.346 21.9286 21.1786C22.096 21.0113 22.2149 20.8017 22.273 20.5723C22.331 20.3428 22.3259 20.1019 22.2581 19.8751L21.556 17.4919ZM5.81252 15.1407C5.75891 15.1407 5.70557 15.1482 5.65408 15.1632L3.05065 15.9291C3.01838 15.9385 2.98417 15.9391 2.95161 15.9308C2.91905 15.9224 2.88933 15.9055 2.86556 15.8817C2.8418 15.8579 2.82486 15.8282 2.81651 15.7957C2.80817 15.7631 2.80874 15.7289 2.81815 15.6966L3.58408 13.0932C3.62527 12.9513 3.60947 12.7989 3.54002 12.6685C2.84035 11.36 2.63418 9.84368 2.95911 8.3959C3.28403 6.94811 4.11841 5.66529 5.31014 4.7813C6.50186 3.8973 7.97158 3.471 9.45136 3.58009C10.9311 3.68918 12.3225 4.32641 13.3717 5.37562C14.4209 6.42482 15.0581 7.81613 15.1672 9.29591C15.2763 10.7757 14.85 12.2454 13.966 13.4371C13.082 14.6289 11.7992 15.4632 10.3514 15.7882C8.90359 16.1131 7.38725 15.9069 6.07877 15.2073C5.99688 15.1634 5.90541 15.1406 5.81252 15.1407ZM20.4103 17.5932L21.1763 20.1966C21.1857 20.2289 21.1862 20.2631 21.1779 20.2957C21.1696 20.3282 21.1526 20.3579 21.1289 20.3817C21.1051 20.4055 21.0754 20.4224 21.0428 20.4308C21.0102 20.4391 20.976 20.4385 20.9438 20.4291L18.3403 19.6632C18.1984 19.6221 18.0461 19.6379 17.9156 19.7073C17.1888 20.0958 16.3916 20.3352 15.571 20.4114C14.7503 20.4876 13.9227 20.3991 13.1367 20.1511C12.3508 19.9031 11.6223 19.5006 10.994 18.9671C10.3657 18.4337 9.85035 17.7801 9.47815 17.0448C10.53 16.9763 11.5545 16.6811 12.4814 16.1793C13.4084 15.6775 14.2157 14.981 14.8481 14.1378C15.4805 13.2945 15.9228 12.3244 16.1449 11.294C16.3669 10.2636 16.3633 9.19737 16.1344 8.1685C17.0901 8.34721 17.9903 8.74863 18.7619 9.34023C19.5336 9.93183 20.1549 10.697 20.5756 11.5735C20.9963 12.4501 21.2044 13.4135 21.1832 14.3856C21.162 15.3577 20.912 16.3111 20.4535 17.1685C20.3853 17.2994 20.3708 17.4518 20.4131 17.5932H20.4103Z" fill="#0B0B0A"/>
</svg>
