<svg width="24" height="24" viewBox="0 0 24 24" fill="none" xmlns="http://www.w3.org/2000/svg">
<path d="M12 2.4375C10.1087 2.4375 8.25991 2.99833 6.68736 4.04907C5.11482 5.09981 3.88917 6.59327 3.16541 8.34059C2.44164 10.0879 2.25227 12.0106 2.62125 13.8656C2.99022 15.7205 3.90096 17.4244 5.2383 18.7617C6.57564 20.099 8.27951 21.0098 10.1345 21.3788C11.9894 21.7477 13.9121 21.5584 15.6594 20.8346C17.4067 20.1108 18.9002 18.8852 19.9509 17.3126C21.0017 15.7401 21.5625 13.8913 21.5625 12C21.5595 9.46478 20.5511 7.03425 18.7584 5.24158C16.9658 3.44891 14.5352 2.44048 12 2.4375ZM19.6472 8.4375H15.8616C15.4103 6.69832 14.5873 5.07766 13.4494 3.68719C14.7879 3.92321 16.05 4.47811 17.1288 5.30495C18.2076 6.13179 19.0714 7.20626 19.6472 8.4375ZM20.4375 12C20.4381 12.8257 20.3171 13.647 20.0784 14.4375H16.1072C16.3809 12.824 16.3809 11.176 16.1072 9.5625H20.0784C20.3171 10.353 20.4381 11.1743 20.4375 12ZM12 20.2341C11.4584 19.6816 10.9807 19.0699 10.5759 18.4106C10.0297 17.522 9.60527 16.5641 9.31407 15.5625H14.6859C14.3947 16.5641 13.9703 17.522 13.4241 18.4106C13.0193 19.0699 12.5416 19.6816 12 20.2341ZM9.04219 14.4375C8.73593 12.8269 8.73593 11.1731 9.04219 9.5625H14.9578C15.2641 11.1731 15.2641 12.8269 14.9578 14.4375H9.04219ZM3.5625 12C3.56187 11.1743 3.68286 10.353 3.92157 9.5625H7.89282C7.61906 11.176 7.61906 12.824 7.89282 14.4375H3.92157C3.68286 13.647 3.56187 12.8257 3.5625 12ZM12 3.76594C12.5416 4.31841 13.0193 4.93007 13.4241 5.58937C13.9703 6.47796 14.3947 7.43591 14.6859 8.4375H9.31407C9.60527 7.43591 10.0297 6.47796 10.5759 5.58937C10.9807 4.93007 11.4584 4.31841 12 3.76594ZM10.5506 3.68719C9.41267 5.07766 8.5897 6.69832 8.13844 8.4375H4.35282C4.9286 7.20626 5.79242 6.13179 6.87122 5.30495C7.95001 4.47811 9.21206 3.92321 10.5506 3.68719ZM4.35282 15.5625H8.13844C8.5897 17.3017 9.41267 18.9223 10.5506 20.3128C9.21206 20.0768 7.95001 19.5219 6.87122 18.6951C5.79242 17.8682 4.9286 16.7937 4.35282 15.5625ZM13.4466 20.3128C14.5855 18.9226 15.4095 17.3019 15.8616 15.5625H19.6472C19.0714 16.7937 18.2076 17.8682 17.1288 18.6951C16.05 19.5219 14.7879 20.0768 13.4494 20.3128H13.4466Z" fill="#0B0B0A"/>
</svg>
