<svg width="24" height="24" viewBox="0 0 24 24" fill="none" xmlns="http://www.w3.org/2000/svg">
<path d="M22.245 9.17535C22.1647 8.92123 22.0098 8.69713 21.8005 8.53212C21.5912 8.36712 21.3371 8.26884 21.0713 8.25004L15.4228 7.79348L13.246 2.52473C13.1444 2.27777 12.9717 2.06656 12.7499 1.91793C12.5281 1.7693 12.2671 1.68994 12 1.68994C11.733 1.68994 11.472 1.7693 11.2502 1.91793C11.0283 2.06656 10.8557 2.27777 10.7541 2.52473L8.57722 7.7916L2.92878 8.25004C2.66269 8.26898 2.40846 8.36754 2.19913 8.53289C1.9898 8.69825 1.83506 8.92276 1.75503 9.17723C1.6716 9.43102 1.66519 9.70384 1.7366 9.96127C1.80801 10.2187 1.95404 10.4492 2.15628 10.6238L6.46878 14.3372L5.15628 19.8919C5.09469 20.1519 5.11161 20.4242 5.2049 20.6746C5.29819 20.9249 5.46365 21.1419 5.68034 21.2982C5.89435 21.4567 6.15127 21.5469 6.41742 21.557C6.68358 21.567 6.94656 21.4964 7.17191 21.3544L12 18.3863L16.8357 21.3591C17.061 21.5011 17.324 21.5717 17.5901 21.5616C17.8563 21.5516 18.1132 21.4614 18.3272 21.3029C18.5439 21.1466 18.7094 20.9296 18.8027 20.6793C18.8959 20.4289 18.9129 20.1566 18.8513 19.8966L17.5388 14.3419L21.8438 10.6238C22.0464 10.4491 22.1926 10.2182 22.2641 9.96042C22.3355 9.70261 22.3289 9.42941 22.245 9.17535ZM21.1069 9.77254L16.5422 13.71C16.4643 13.7772 16.4064 13.8645 16.3746 13.9624C16.3429 14.0602 16.3386 14.1649 16.3622 14.265L17.7572 20.1516C17.7694 20.196 17.7674 20.2432 17.7514 20.2864C17.7355 20.3296 17.7063 20.3667 17.6682 20.3925C17.6336 20.4193 17.5915 20.4346 17.5478 20.4362C17.5041 20.4379 17.461 20.4259 17.4244 20.4019L12.2944 17.25C12.2058 17.1957 12.104 17.1669 12 17.1669C11.8961 17.1669 11.7942 17.1957 11.7057 17.25L6.57566 20.401C6.53911 20.425 6.49598 20.437 6.45228 20.4353C6.40858 20.4336 6.3665 20.4184 6.33191 20.3916C6.29288 20.3664 6.26281 20.3296 6.24597 20.2863C6.22914 20.2431 6.2264 20.1956 6.23816 20.1507L7.63316 14.2641C7.65677 14.164 7.65248 14.0593 7.62074 13.9614C7.589 13.8636 7.53104 13.7763 7.45316 13.7091L2.88847 9.7716C2.85266 9.74244 2.82682 9.70285 2.81455 9.65832C2.80229 9.61379 2.8042 9.56655 2.82003 9.52317C2.83226 9.48039 2.85753 9.4425 2.89231 9.41478C2.9271 9.38705 2.96967 9.37086 3.01409 9.36848L9.00659 8.88473C9.10985 8.87634 9.20879 8.8396 9.29249 8.77856C9.3762 8.71752 9.44142 8.63455 9.48097 8.53879L11.79 2.95129C11.8061 2.90993 11.8343 2.87439 11.871 2.84934C11.9076 2.82429 11.951 2.81088 11.9953 2.81088C12.0397 2.81088 12.0831 2.82429 12.1197 2.84934C12.1563 2.87439 12.1846 2.90993 12.2007 2.95129L14.5097 8.53879C14.5493 8.63455 14.6145 8.71752 14.6982 8.77856C14.7819 8.8396 14.8808 8.87634 14.9841 8.88473L20.9766 9.36848C21.021 9.37086 21.0636 9.38705 21.0984 9.41478C21.1332 9.4425 21.1584 9.48039 21.1707 9.52317C21.1872 9.56621 21.19 9.61334 21.1786 9.65803C21.1671 9.70271 21.1421 9.74273 21.1069 9.77254Z" fill="#0B0B0A"/>
</svg>
