<svg width="24" height="24" viewBox="0 0 24 24" fill="none" xmlns="http://www.w3.org/2000/svg">
<path d="M12.9374 19.125C12.9374 19.3104 12.8824 19.4917 12.7794 19.6459C12.6764 19.8 12.53 19.9202 12.3587 19.9912C12.1874 20.0621 11.9989 20.0807 11.817 20.0445C11.6352 20.0083 11.4681 19.919 11.337 19.7879C11.2059 19.6568 11.1166 19.4898 11.0804 19.3079C11.0443 19.1261 11.0628 18.9376 11.1338 18.7663C11.2047 18.5949 11.3249 18.4485 11.4791 18.3455C11.6333 18.2425 11.8145 18.1875 11.9999 18.1875C12.2486 18.1875 12.487 18.2863 12.6628 18.4621C12.8387 18.6379 12.9374 18.8764 12.9374 19.125ZM22.1071 8.30158C19.2574 5.9642 15.6856 4.68677 11.9999 4.68677C8.31424 4.68677 4.74247 5.9642 1.89274 8.30158C1.83532 8.34837 1.7877 8.40604 1.75262 8.47128C1.71754 8.53652 1.69569 8.60805 1.68833 8.68175C1.68097 8.75546 1.68824 8.8299 1.70972 8.90079C1.7312 8.97168 1.76647 9.03763 1.81351 9.09485C1.86055 9.15207 1.91842 9.19944 1.98382 9.23423C2.04921 9.26903 2.12083 9.29057 2.19457 9.29761C2.26831 9.30465 2.34271 9.29706 2.41351 9.27527C2.4843 9.25348 2.5501 9.21793 2.60712 9.17064C5.25555 6.99873 8.57482 5.81175 11.9999 5.81175C15.425 5.81175 18.7443 6.99873 21.3927 9.17064C21.4498 9.21793 21.5156 9.25348 21.5864 9.27527C21.6571 9.29706 21.7316 9.30465 21.8053 9.29761C21.879 9.29057 21.9506 9.26903 22.016 9.23423C22.0814 9.19944 22.1393 9.15207 22.1863 9.09485C22.2334 9.03763 22.2687 8.97168 22.2901 8.90079C22.3116 8.8299 22.3189 8.75546 22.3115 8.68175C22.3042 8.60805 22.2823 8.53652 22.2472 8.47128C22.2122 8.40604 22.1645 8.34837 22.1071 8.30158ZM19.0996 11.6569C17.079 10.0571 14.5772 9.1866 11.9999 9.1866C9.42264 9.1866 6.92089 10.0571 4.90024 11.6569C4.78326 11.7496 4.7079 11.8851 4.69076 12.0334C4.67362 12.1817 4.71609 12.3307 4.80883 12.4477C4.90158 12.5647 5.03699 12.64 5.18529 12.6572C5.33359 12.6743 5.48263 12.6318 5.59962 12.5391C7.42134 11.0971 9.6766 10.3126 11.9999 10.3126C14.3233 10.3126 16.5785 11.0971 18.4002 12.5391C18.5003 12.6163 18.6235 12.6576 18.7499 12.6563C18.8667 12.6563 18.9805 12.62 19.0757 12.5523C19.1709 12.4847 19.2427 12.3892 19.2811 12.2789C19.3195 12.1687 19.3227 12.0492 19.2902 11.9371C19.2577 11.8249 19.1911 11.7257 19.0996 11.6531V11.6569ZM16.0809 15.0141C14.895 14.1515 13.4663 13.6868 11.9999 13.6868C10.5335 13.6868 9.10484 14.1515 7.91899 15.0141C7.80195 15.1032 7.72446 15.2346 7.70314 15.3801C7.68181 15.5256 7.71834 15.6737 7.8049 15.7927C7.89146 15.9116 8.02116 15.9919 8.16621 16.0163C8.31126 16.0408 8.46011 16.0074 8.58087 15.9235C9.5744 15.2008 10.7714 14.8115 11.9999 14.8115C13.2285 14.8115 14.4255 15.2008 15.419 15.9235C15.5396 16.0112 15.6901 16.0474 15.8374 16.0242C15.9847 16.001 16.1168 15.9203 16.2046 15.7997C16.2924 15.6791 16.3286 15.5286 16.3054 15.3813C16.2822 15.2339 16.2014 15.1019 16.0809 15.0141Z" fill="#0B0B0A"/>
</svg>
